<?xml version="1.0" encoding="utf-8" standalone="no"?>
<!DOCTYPE svg PUBLIC "-//W3C//DTD SVG 1.1//EN"
  "http://www.w3.org/Graphics/SVG/1.1/DTD/svg11.dtd">
<!-- Created with matplotlib (https://matplotlib.org/) -->
<svg height="152.35848pt" version="1.1" viewBox="0 0 457.07544 152.35848" width="457.07544pt" xmlns="http://www.w3.org/2000/svg" xmlns:xlink="http://www.w3.org/1999/xlink">
 <defs>
  <style type="text/css">
*{stroke-linecap:butt;stroke-linejoin:round;}
  </style>
 </defs>
 <g id="figure_1">
  <g id="patch_1">
   <path d="M 0 152.35848 
L 457.07544 152.35848 
L 457.07544 0 
L 0 0 
z
" style="fill:#ffffff;"/>
  </g>
  <g id="axes_1">
   <g id="patch_2">
    <path d="M 45.707544 137.122632 
L 411.367896 137.122632 
L 411.367896 15.235848 
L 45.707544 15.235848 
z
" style="fill:#ffffff;"/>
   </g>
   <g id="PathCollection_1">
    <defs>
     <path d="M 0 3 
C 0.795609 3 1.55874 2.683901 2.12132 2.12132 
C 2.683901 1.55874 3 0.795609 3 0 
C 3 -0.795609 2.683901 -1.55874 2.12132 -2.12132 
C 1.55874 -2.683901 0.795609 -3 0 -3 
C -0.795609 -3 -1.55874 -2.683901 -2.12132 -2.12132 
C -2.683901 -1.55874 -3 -0.795609 -3 0 
C -3 0.795609 -2.683901 1.55874 -2.12132 2.12132 
C -1.55874 2.683901 -0.795609 3 0 3 
z
" id="mcef2e43396" style="stroke:#955196;"/>
    </defs>
    <g clip-path="url(#p331f94b2f9)">
     <use style="fill:#955196;stroke:#955196;" x="411.367896" xlink:href="#mcef2e43396" y="36.159567"/>
     <use style="fill:#955196;stroke:#955196;" x="392.122614" xlink:href="#mcef2e43396" y="71.705508"/>
     <use style="fill:#955196;stroke:#955196;" x="372.877333" xlink:href="#mcef2e43396" y="97.298151"/>
     <use style="fill:#955196;stroke:#955196;" x="353.632051" xlink:href="#mcef2e43396" y="31.144206"/>
     <use style="fill:#955196;stroke:#955196;" x="334.386769" xlink:href="#mcef2e43396" y="76.908639"/>
     <use style="fill:#955196;stroke:#955196;" x="315.141488" xlink:href="#mcef2e43396" y="84.804141"/>
     <use style="fill:#955196;stroke:#955196;" x="295.896206" xlink:href="#mcef2e43396" y="22.990256"/>
     <use style="fill:#955196;stroke:#955196;" x="276.650924" xlink:href="#mcef2e43396" y="56.657695"/>
     <use style="fill:#955196;stroke:#955196;" x="257.405643" xlink:href="#mcef2e43396" y="106.741064"/>
     <use style="fill:#955196;stroke:#955196;" x="238.160361" xlink:href="#mcef2e43396" y="100.849073"/>
     <use style="fill:#955196;stroke:#955196;" x="218.915079" xlink:href="#mcef2e43396" y="112.032389"/>
     <use style="fill:#955196;stroke:#955196;" x="199.669797" xlink:href="#mcef2e43396" y="120.47748"/>
     <use style="fill:#955196;stroke:#955196;" x="180.424516" xlink:href="#mcef2e43396" y="111.388868"/>
     <use style="fill:#955196;stroke:#955196;" x="161.179234" xlink:href="#mcef2e43396" y="108.583619"/>
     <use style="fill:#955196;stroke:#955196;" x="141.933952" xlink:href="#mcef2e43396" y="122.7441"/>
     <use style="fill:#955196;stroke:#955196;" x="122.688671" xlink:href="#mcef2e43396" y="125.613633"/>
     <use style="fill:#955196;stroke:#955196;" x="103.443389" xlink:href="#mcef2e43396" y="126.253946"/>
     <use style="fill:#955196;stroke:#955196;" x="84.198107" xlink:href="#mcef2e43396" y="122.955336"/>
     <use style="fill:#955196;stroke:#955196;" x="64.952826" xlink:href="#mcef2e43396" y="122.948287"/>
     <use style="fill:#955196;stroke:#955196;" x="45.707544" xlink:href="#mcef2e43396" y="126.241628"/>
    </g>
   </g>
   <g id="PolyCollection_1">
    <path clip-path="url(#p331f94b2f9)" d="M 411.384894 36.16535 
L 411.384894 137.122632 
L 408.533418 137.122632 
L 405.681941 137.122632 
L 402.830465 137.122632 
L 399.978988 137.122632 
L 397.127511 137.122632 
L 394.276035 137.122632 
L 392.082591 137.122632 
L 389.231115 137.122632 
L 386.379638 137.122632 
L 383.528161 137.122632 
L 380.676685 137.122632 
L 377.825208 137.122632 
L 374.973732 137.122632 
L 372.88996 137.122632 
L 370.038484 137.122632 
L 367.187007 137.122632 
L 364.33553 137.122632 
L 361.484054 137.122632 
L 358.632577 137.122632 
L 355.781101 137.122632 
L 353.587657 137.122632 
L 350.73618 137.122632 
L 347.884704 137.122632 
L 345.033227 137.122632 
L 342.181751 137.122632 
L 339.330274 137.122632 
L 336.478797 137.122632 
L 334.395026 137.122632 
L 331.543549 137.122632 
L 328.692073 137.122632 
L 325.840596 137.122632 
L 322.989119 137.122632 
L 320.137643 137.122632 
L 317.286166 137.122632 
L 315.092723 137.122632 
L 312.241246 137.122632 
L 309.38977 137.122632 
L 306.538293 137.122632 
L 303.686816 137.122632 
L 300.83534 137.122632 
L 297.983863 137.122632 
L 295.900092 137.122632 
L 293.048615 137.122632 
L 290.197139 137.122632 
L 287.345662 137.122632 
L 284.494185 137.122632 
L 281.642709 137.122632 
L 278.791232 137.122632 
L 276.597789 137.122632 
L 273.746312 137.122632 
L 270.894835 137.122632 
L 268.043359 137.122632 
L 265.191882 137.122632 
L 262.340405 137.122632 
L 259.488929 137.122632 
L 257.405158 137.122632 
L 254.553681 137.122632 
L 251.702204 137.122632 
L 248.850728 137.122632 
L 245.999251 137.122632 
L 243.147775 137.122632 
L 240.296298 137.122632 
L 238.212527 137.122632 
L 235.36105 137.122632 
L 232.509573 137.122632 
L 229.658097 137.122632 
L 226.80662 137.122632 
L 223.955144 137.122632 
L 221.103667 137.122632 
L 218.910223 137.122632 
L 216.058747 137.122632 
L 213.20727 137.122632 
L 210.355794 137.122632 
L 207.504317 137.122632 
L 204.65284 137.122632 
L 201.801364 137.122632 
L 199.717592 137.122632 
L 196.866116 137.122632 
L 194.014639 137.122632 
L 191.163163 137.122632 
L 188.311686 137.122632 
L 185.460209 137.122632 
L 182.608733 137.122632 
L 180.415289 137.122632 
L 177.563812 137.122632 
L 174.712336 137.122632 
L 171.860859 137.122632 
L 169.009383 137.122632 
L 166.157906 137.122632 
L 163.30643 137.122632 
L 161.222658 137.122632 
L 158.371181 137.122632 
L 155.519705 137.122632 
L 152.668228 137.122632 
L 149.816752 137.122632 
L 146.965275 137.122632 
L 144.113798 137.122632 
L 141.920355 137.122632 
L 139.068878 137.122632 
L 136.217402 137.122632 
L 133.365925 137.122632 
L 130.514448 137.122632 
L 127.662972 137.122632 
L 124.811495 137.122632 
L 122.727724 137.122632 
L 119.876247 137.122632 
L 117.024771 137.122632 
L 114.173294 137.122632 
L 111.321817 137.122632 
L 108.470341 137.122632 
L 105.618864 137.122632 
L 103.425421 137.122632 
L 100.573944 137.122632 
L 97.722467 137.122632 
L 94.870991 137.122632 
L 92.019514 137.122632 
L 89.168038 137.122632 
L 86.316561 137.122632 
L 84.23279 137.122632 
L 81.381313 137.122632 
L 78.529836 137.122632 
L 75.67836 137.122632 
L 72.826883 137.122632 
L 69.975407 137.122632 
L 67.12393 137.122632 
L 64.930486 137.122632 
L 62.07901 137.122632 
L 59.227533 137.122632 
L 56.376057 137.122632 
L 53.52458 137.122632 
L 50.673103 137.122632 
L 47.821627 137.122632 
L 45.737855 137.122632 
L 45.737855 126.225077 
L 45.737855 126.225077 
L 47.821627 125.824164 
L 50.673103 125.241017 
L 53.52458 124.694317 
L 56.376057 124.184063 
L 59.227533 123.710257 
L 62.07901 123.309343 
L 64.930486 122.944876 
L 67.12393 122.726196 
L 69.975407 122.507516 
L 72.826883 122.36173 
L 75.67836 122.325283 
L 78.529836 122.398176 
L 81.381313 122.616856 
L 84.23279 122.944876 
L 86.316561 123.272897 
L 89.168038 123.78315 
L 92.019514 124.366297 
L 94.870991 124.98589 
L 97.722467 125.496144 
L 100.573944 125.96995 
L 103.425421 126.261524 
L 105.618864 126.370864 
L 108.470341 126.370864 
L 111.321817 126.261524 
L 114.173294 126.07929 
L 117.024771 125.897057 
L 119.876247 125.714824 
L 122.727724 125.605484 
L 124.811495 125.605484 
L 127.662972 125.605484 
L 130.514448 125.53259 
L 133.365925 125.31391 
L 136.217402 124.840103 
L 139.068878 124.038277 
L 141.920355 122.726196 
L 144.113798 121.37767 
L 146.965275 119.263763 
L 149.816752 116.894729 
L 152.668228 114.452802 
L 155.519705 112.156661 
L 158.371181 110.115648 
L 161.222658 108.584888 
L 163.30643 107.855954 
L 166.157906 107.345701 
L 169.009383 107.345701 
L 171.860859 107.855954 
L 174.712336 108.730674 
L 177.563812 109.933414 
L 180.415289 111.391281 
L 182.608733 112.630468 
L 185.460209 114.343462 
L 188.311686 116.020009 
L 191.163163 117.587216 
L 194.014639 118.935742 
L 196.866116 119.919803 
L 199.717592 120.466503 
L 201.801364 120.539396 
L 204.65284 120.138483 
L 207.504317 119.300209 
L 210.355794 118.024576 
L 213.20727 116.348029 
L 216.058747 114.343462 
L 218.910223 112.047321 
L 221.103667 110.115648 
L 223.955144 107.564381 
L 226.80662 105.1589 
L 229.658097 103.044993 
L 232.509573 101.514233 
L 235.36105 100.712406 
L 238.212527 100.858193 
L 240.296298 101.66002 
L 243.147775 103.373013 
L 245.999251 105.450474 
L 248.850728 107.272807 
L 251.702204 108.439101 
L 254.553681 108.439101 
L 257.405158 106.726107 
L 259.488929 104.17484 
L 262.340405 99.072306 
L 265.191882 92.366118 
L 268.043359 84.45719 
L 270.894835 75.600649 
L 273.746312 66.233854 
L 276.597789 56.648379 
L 278.791232 49.359045 
L 281.642709 40.42961 
L 284.494185 32.593576 
L 287.345662 26.397641 
L 290.197139 22.352061 
L 293.048615 21.039981 
L 295.900092 23.008101 
L 297.983863 26.725661 
L 300.83534 34.379463 
L 303.686816 44.147171 
L 306.538293 55.081173 
L 309.38977 66.124514 
L 312.241246 76.366029 
L 315.092723 84.821657 
L 317.286166 89.559725 
L 320.137643 93.350179 
L 322.989119 94.625812 
L 325.840596 93.459519 
L 328.692073 90.033531 
L 331.543549 84.493637 
L 334.395026 76.912729 
L 336.478797 70.242988 
L 339.330274 60.2566 
L 342.181751 50.233765 
L 345.033227 41.267884 
L 347.884704 34.379463 
L 350.73618 30.625455 
L 353.587657 31.135709 
L 355.781101 34.853269 
L 358.632577 43.308897 
L 361.484054 54.498026 
L 364.33553 66.926341 
L 367.187007 79.172423 
L 370.038484 89.778405 
L 372.88996 97.286419 
L 374.973732 100.12926 
L 377.825208 100.67596 
L 380.676685 98.015353 
L 383.528161 93.022158 
L 386.379638 86.425311 
L 389.231115 79.063083 
L 392.082591 71.700855 
L 394.276035 66.488981 
L 397.127511 60.329493 
L 399.978988 54.789599 
L 402.830465 49.723512 
L 405.681941 44.985444 
L 408.533418 40.502504 
L 411.384894 36.16535 
z
" style="fill:#955196;fill-opacity:0.2;"/>
   </g>
   <g id="line2d_1">
    <path clip-path="url(#p331f94b2f9)" d="M 411.384894 36.16535 
L 405.681941 44.985444 
L 402.830465 49.723512 
L 399.978988 54.789599 
L 397.127511 60.329493 
L 394.276035 66.488981 
L 392.082591 71.700855 
L 386.379638 86.425311 
L 383.528161 93.022158 
L 380.676685 98.015353 
L 377.825208 100.67596 
L 374.973732 100.12926 
L 372.88996 97.286419 
L 370.038484 89.778405 
L 367.187007 79.172423 
L 361.484054 54.498026 
L 358.632577 43.308897 
L 355.781101 34.853269 
L 353.587657 31.135709 
L 350.73618 30.625455 
L 347.884704 34.379463 
L 345.033227 41.267884 
L 342.181751 50.233765 
L 336.478797 70.242988 
L 334.395026 76.912729 
L 331.543549 84.493637 
L 328.692073 90.033531 
L 325.840596 93.459519 
L 322.989119 94.625812 
L 320.137643 93.350179 
L 317.286166 89.559725 
L 315.092723 84.821657 
L 312.241246 76.366029 
L 309.38977 66.124514 
L 303.686816 44.147171 
L 300.83534 34.379463 
L 297.983863 26.725661 
L 295.900092 23.008101 
L 293.048615 21.039981 
L 290.197139 22.352061 
L 287.345662 26.397641 
L 284.494185 32.593576 
L 281.642709 40.42961 
L 278.791232 49.359045 
L 270.894835 75.600649 
L 268.043359 84.45719 
L 265.191882 92.366118 
L 262.340405 99.072306 
L 259.488929 104.17484 
L 257.405158 106.726107 
L 254.553681 108.439101 
L 251.702204 108.439101 
L 248.850728 107.272807 
L 245.999251 105.450474 
L 243.147775 103.373013 
L 240.296298 101.66002 
L 238.212527 100.858193 
L 235.36105 100.712406 
L 232.509573 101.514233 
L 229.658097 103.044993 
L 226.80662 105.1589 
L 223.955144 107.564381 
L 218.910223 112.047321 
L 216.058747 114.343462 
L 213.20727 116.348029 
L 210.355794 118.024576 
L 207.504317 119.300209 
L 204.65284 120.138483 
L 201.801364 120.539396 
L 199.717592 120.466503 
L 196.866116 119.919803 
L 194.014639 118.935742 
L 191.163163 117.587216 
L 185.460209 114.343462 
L 180.415289 111.391281 
L 177.563812 109.933414 
L 174.712336 108.730674 
L 171.860859 107.855954 
L 169.009383 107.345701 
L 166.157906 107.345701 
L 163.30643 107.855954 
L 161.222658 108.584888 
L 158.371181 110.115648 
L 155.519705 112.156661 
L 152.668228 114.452802 
L 146.965275 119.263763 
L 144.113798 121.37767 
L 141.920355 122.726196 
L 139.068878 124.038277 
L 136.217402 124.840103 
L 133.365925 125.31391 
L 130.514448 125.53259 
L 124.811495 125.605484 
L 119.876247 125.714824 
L 108.470341 126.370864 
L 103.425421 126.261524 
L 100.573944 125.96995 
L 94.870991 124.98589 
L 89.168038 123.78315 
L 84.23279 122.944876 
L 78.529836 122.398176 
L 72.826883 122.36173 
L 67.12393 122.726196 
L 62.07901 123.309343 
L 56.376057 124.184063 
L 47.821627 125.824164 
L 45.737855 126.225077 
L 45.737855 126.225077 
" style="fill:none;stroke:#955196;stroke-linecap:square;"/>
   </g>
   <g id="patch_3">
    <path d="M 45.707544 137.122632 
L 45.707544 15.235848 
" style="fill:none;stroke:#000000;stroke-linecap:square;stroke-linejoin:miter;stroke-width:0.8;"/>
   </g>
   <g id="patch_4">
    <path d="M 411.367896 137.122632 
L 411.367896 15.235848 
" style="fill:none;stroke:#000000;stroke-linecap:square;stroke-linejoin:miter;stroke-width:0.8;"/>
   </g>
   <g id="patch_5">
    <path d="M 45.707544 137.122632 
L 411.367896 137.122632 
" style="fill:none;stroke:#000000;stroke-linecap:square;stroke-linejoin:miter;stroke-width:0.8;"/>
   </g>
   <g id="patch_6">
    <path d="M 45.707544 15.235848 
L 411.367896 15.235848 
" style="fill:none;stroke:#000000;stroke-linecap:square;stroke-linejoin:miter;stroke-width:0.8;"/>
   </g>
   <g id="matplotlib.axis_1">
    <g id="xtick_1">
     <g id="line2d_2">
      <defs>
       <path d="M 0 0 
L 0 3.5 
" id="mcf970995e7" style="stroke:#000000;stroke-width:0.8;"/>
      </defs>
      <g>
       <use style="stroke:#000000;stroke-width:0.8;" x="395.761594" xlink:href="#mcf970995e7" y="137.122632"/>
      </g>
     </g>
     <g id="text_1">
      <!-- 3.5 -->
      <defs>
       <path d="M 4.203125 18.890625 
L 12.984375 20.0625 
Q 14.5 12.59375 18.140625 9.296875 
Q 21.78125 6 27 6 
Q 33.203125 6 37.46875 10.296875 
Q 41.75 14.59375 41.75 20.953125 
Q 41.75 27 37.796875 30.921875 
Q 33.84375 34.859375 27.734375 34.859375 
Q 25.25 34.859375 21.53125 33.890625 
L 22.515625 41.609375 
Q 23.390625 41.5 23.921875 41.5 
Q 29.546875 41.5 34.03125 44.421875 
Q 38.53125 47.359375 38.53125 53.46875 
Q 38.53125 58.296875 35.25 61.46875 
Q 31.984375 64.65625 26.8125 64.65625 
Q 21.6875 64.65625 18.265625 61.421875 
Q 14.84375 58.203125 13.875 51.765625 
L 5.078125 53.328125 
Q 6.6875 62.15625 12.390625 67.015625 
Q 18.109375 71.875 26.609375 71.875 
Q 32.46875 71.875 37.390625 69.359375 
Q 42.328125 66.84375 44.9375 62.5 
Q 47.5625 58.15625 47.5625 53.265625 
Q 47.5625 48.640625 45.0625 44.828125 
Q 42.578125 41.015625 37.703125 38.765625 
Q 44.046875 37.3125 47.5625 32.6875 
Q 51.078125 28.078125 51.078125 21.140625 
Q 51.078125 11.765625 44.234375 5.25 
Q 37.40625 -1.265625 26.953125 -1.265625 
Q 17.53125 -1.265625 11.296875 4.34375 
Q 5.078125 9.96875 4.203125 18.890625 
z
" id="ArialMT-51"/>
       <path d="M 9.078125 0 
L 9.078125 10.015625 
L 19.09375 10.015625 
L 19.09375 0 
z
" id="ArialMT-46"/>
       <path d="M 4.15625 18.75 
L 13.375 19.53125 
Q 14.40625 12.796875 18.140625 9.390625 
Q 21.875 6 27.15625 6 
Q 33.5 6 37.890625 10.78125 
Q 42.28125 15.578125 42.28125 23.484375 
Q 42.28125 31 38.0625 35.34375 
Q 33.84375 39.703125 27 39.703125 
Q 22.75 39.703125 19.328125 37.765625 
Q 15.921875 35.84375 13.96875 32.765625 
L 5.71875 33.84375 
L 12.640625 70.609375 
L 48.25 70.609375 
L 48.25 62.203125 
L 19.671875 62.203125 
L 15.828125 42.96875 
Q 22.265625 47.46875 29.34375 47.46875 
Q 38.71875 47.46875 45.15625 40.96875 
Q 51.609375 34.46875 51.609375 24.265625 
Q 51.609375 14.546875 45.953125 7.46875 
Q 39.0625 -1.21875 27.15625 -1.21875 
Q 17.390625 -1.21875 11.203125 4.25 
Q 5.03125 9.71875 4.15625 18.75 
z
" id="ArialMT-53"/>
      </defs>
      <g transform="translate(384.641594 155.575132)scale(0.16 -0.16)">
       <use xlink:href="#ArialMT-51"/>
       <use x="55.615234" xlink:href="#ArialMT-46"/>
       <use x="83.398438" xlink:href="#ArialMT-53"/>
      </g>
     </g>
    </g>
    <g id="xtick_2">
     <g id="line2d_3">
      <g>
       <use style="stroke:#000000;stroke-width:0.8;" x="308.303018" xlink:href="#mcf970995e7" y="137.122632"/>
      </g>
     </g>
     <g id="text_2">
      <!-- 4.0 -->
      <defs>
       <path d="M 32.328125 0 
L 32.328125 17.140625 
L 1.265625 17.140625 
L 1.265625 25.203125 
L 33.9375 71.578125 
L 41.109375 71.578125 
L 41.109375 25.203125 
L 50.78125 25.203125 
L 50.78125 17.140625 
L 41.109375 17.140625 
L 41.109375 0 
z
M 32.328125 25.203125 
L 32.328125 57.46875 
L 9.90625 25.203125 
z
" id="ArialMT-52"/>
       <path d="M 4.15625 35.296875 
Q 4.15625 48 6.765625 55.734375 
Q 9.375 63.484375 14.515625 67.671875 
Q 19.671875 71.875 27.484375 71.875 
Q 33.25 71.875 37.59375 69.546875 
Q 41.9375 67.234375 44.765625 62.859375 
Q 47.609375 58.5 49.21875 52.21875 
Q 50.828125 45.953125 50.828125 35.296875 
Q 50.828125 22.703125 48.234375 14.96875 
Q 45.65625 7.234375 40.5 3 
Q 35.359375 -1.21875 27.484375 -1.21875 
Q 17.140625 -1.21875 11.234375 6.203125 
Q 4.15625 15.140625 4.15625 35.296875 
z
M 13.1875 35.296875 
Q 13.1875 17.671875 17.3125 11.828125 
Q 21.4375 6 27.484375 6 
Q 33.546875 6 37.671875 11.859375 
Q 41.796875 17.71875 41.796875 35.296875 
Q 41.796875 52.984375 37.671875 58.78125 
Q 33.546875 64.59375 27.390625 64.59375 
Q 21.34375 64.59375 17.71875 59.46875 
Q 13.1875 52.9375 13.1875 35.296875 
z
" id="ArialMT-48"/>
      </defs>
      <g transform="translate(297.183018 155.575132)scale(0.16 -0.16)">
       <use xlink:href="#ArialMT-52"/>
       <use x="55.615234" xlink:href="#ArialMT-46"/>
       <use x="83.398438" xlink:href="#ArialMT-48"/>
      </g>
     </g>
    </g>
    <g id="xtick_3">
     <g id="line2d_4">
      <g>
       <use style="stroke:#000000;stroke-width:0.8;" x="220.844442" xlink:href="#mcf970995e7" y="137.122632"/>
      </g>
     </g>
     <g id="text_3">
      <!-- 4.5 -->
      <g transform="translate(209.724442 155.575132)scale(0.16 -0.16)">
       <use xlink:href="#ArialMT-52"/>
       <use x="55.615234" xlink:href="#ArialMT-46"/>
       <use x="83.398438" xlink:href="#ArialMT-53"/>
      </g>
     </g>
    </g>
    <g id="xtick_4">
     <g id="line2d_5">
      <g>
       <use style="stroke:#000000;stroke-width:0.8;" x="133.385865" xlink:href="#mcf970995e7" y="137.122632"/>
      </g>
     </g>
     <g id="text_4">
      <!-- 5.0 -->
      <g transform="translate(122.265865 155.575132)scale(0.16 -0.16)">
       <use xlink:href="#ArialMT-53"/>
       <use x="55.615234" xlink:href="#ArialMT-46"/>
       <use x="83.398438" xlink:href="#ArialMT-48"/>
      </g>
     </g>
    </g>
    <g id="xtick_5">
     <g id="line2d_6">
      <g>
       <use style="stroke:#000000;stroke-width:0.8;" x="45.927289" xlink:href="#mcf970995e7" y="137.122632"/>
      </g>
     </g>
     <g id="text_5">
      <!-- 5.5 -->
      <g transform="translate(34.807289 155.575132)scale(0.16 -0.16)">
       <use xlink:href="#ArialMT-53"/>
       <use x="55.615234" xlink:href="#ArialMT-46"/>
       <use x="83.398438" xlink:href="#ArialMT-53"/>
      </g>
     </g>
    </g>
    <g id="text_6">
     <!-- Drift Time (ms) -->
     <defs>
      <path d="M 7.71875 0 
L 7.71875 71.578125 
L 32.375 71.578125 
Q 40.71875 71.578125 45.125 70.5625 
Q 51.265625 69.140625 55.609375 65.4375 
Q 61.28125 60.640625 64.078125 53.1875 
Q 66.890625 45.75 66.890625 36.1875 
Q 66.890625 28.03125 64.984375 21.734375 
Q 63.09375 15.4375 60.109375 11.296875 
Q 57.125 7.171875 53.578125 4.796875 
Q 50.046875 2.4375 45.046875 1.21875 
Q 40.046875 0 33.546875 0 
z
M 17.1875 8.453125 
L 32.46875 8.453125 
Q 39.546875 8.453125 43.578125 9.765625 
Q 47.609375 11.078125 50 13.484375 
Q 53.375 16.84375 55.25 22.53125 
Q 57.125 28.21875 57.125 36.328125 
Q 57.125 47.5625 53.4375 53.59375 
Q 49.75 59.625 44.484375 61.671875 
Q 40.671875 63.140625 32.234375 63.140625 
L 17.1875 63.140625 
z
" id="ArialMT-68"/>
      <path d="M 6.5 0 
L 6.5 51.859375 
L 14.40625 51.859375 
L 14.40625 44 
Q 17.4375 49.515625 20 51.265625 
Q 22.5625 53.03125 25.640625 53.03125 
Q 30.078125 53.03125 34.671875 50.203125 
L 31.640625 42.046875 
Q 28.421875 43.953125 25.203125 43.953125 
Q 22.3125 43.953125 20.015625 42.21875 
Q 17.71875 40.484375 16.75 37.40625 
Q 15.28125 32.71875 15.28125 27.15625 
L 15.28125 0 
z
" id="ArialMT-114"/>
      <path d="M 6.640625 61.46875 
L 6.640625 71.578125 
L 15.4375 71.578125 
L 15.4375 61.46875 
z
M 6.640625 0 
L 6.640625 51.859375 
L 15.4375 51.859375 
L 15.4375 0 
z
" id="ArialMT-105"/>
      <path d="M 8.6875 0 
L 8.6875 45.015625 
L 0.921875 45.015625 
L 0.921875 51.859375 
L 8.6875 51.859375 
L 8.6875 57.375 
Q 8.6875 62.59375 9.625 65.140625 
Q 10.890625 68.5625 14.078125 70.671875 
Q 17.28125 72.796875 23.046875 72.796875 
Q 26.765625 72.796875 31.25 71.921875 
L 29.9375 64.265625 
Q 27.203125 64.75 24.75 64.75 
Q 20.75 64.75 19.09375 63.03125 
Q 17.4375 61.328125 17.4375 56.640625 
L 17.4375 51.859375 
L 27.546875 51.859375 
L 27.546875 45.015625 
L 17.4375 45.015625 
L 17.4375 0 
z
" id="ArialMT-102"/>
      <path d="M 25.78125 7.859375 
L 27.046875 0.09375 
Q 23.34375 -0.6875 20.40625 -0.6875 
Q 15.625 -0.6875 12.984375 0.828125 
Q 10.359375 2.34375 9.28125 4.8125 
Q 8.203125 7.28125 8.203125 15.1875 
L 8.203125 45.015625 
L 1.765625 45.015625 
L 1.765625 51.859375 
L 8.203125 51.859375 
L 8.203125 64.703125 
L 16.9375 69.96875 
L 16.9375 51.859375 
L 25.78125 51.859375 
L 25.78125 45.015625 
L 16.9375 45.015625 
L 16.9375 14.703125 
Q 16.9375 10.9375 17.40625 9.859375 
Q 17.875 8.796875 18.921875 8.15625 
Q 19.96875 7.515625 21.921875 7.515625 
Q 23.390625 7.515625 25.78125 7.859375 
z
" id="ArialMT-116"/>
      <path id="ArialMT-32"/>
      <path d="M 25.921875 0 
L 25.921875 63.140625 
L 2.34375 63.140625 
L 2.34375 71.578125 
L 59.078125 71.578125 
L 59.078125 63.140625 
L 35.40625 63.140625 
L 35.40625 0 
z
" id="ArialMT-84"/>
      <path d="M 6.59375 0 
L 6.59375 51.859375 
L 14.453125 51.859375 
L 14.453125 44.578125 
Q 16.890625 48.390625 20.9375 50.703125 
Q 25 53.03125 30.171875 53.03125 
Q 35.9375 53.03125 39.625 50.640625 
Q 43.3125 48.25 44.828125 43.953125 
Q 50.984375 53.03125 60.84375 53.03125 
Q 68.5625 53.03125 72.703125 48.75 
Q 76.859375 44.484375 76.859375 35.59375 
L 76.859375 0 
L 68.109375 0 
L 68.109375 32.671875 
Q 68.109375 37.9375 67.25 40.25 
Q 66.40625 42.578125 64.15625 43.984375 
Q 61.921875 45.40625 58.890625 45.40625 
Q 53.421875 45.40625 49.796875 41.765625 
Q 46.1875 38.140625 46.1875 30.125 
L 46.1875 0 
L 37.40625 0 
L 37.40625 33.6875 
Q 37.40625 39.546875 35.25 42.46875 
Q 33.109375 45.40625 28.21875 45.40625 
Q 24.515625 45.40625 21.359375 43.453125 
Q 18.21875 41.5 16.796875 37.734375 
Q 15.375 33.984375 15.375 26.90625 
L 15.375 0 
z
" id="ArialMT-109"/>
      <path d="M 42.09375 16.703125 
L 51.171875 15.578125 
Q 49.03125 7.625 43.21875 3.21875 
Q 37.40625 -1.171875 28.375 -1.171875 
Q 17 -1.171875 10.328125 5.828125 
Q 3.65625 12.84375 3.65625 25.484375 
Q 3.65625 38.578125 10.390625 45.796875 
Q 17.140625 53.03125 27.875 53.03125 
Q 38.28125 53.03125 44.875 45.953125 
Q 51.46875 38.875 51.46875 26.03125 
Q 51.46875 25.25 51.421875 23.6875 
L 12.75 23.6875 
Q 13.234375 15.140625 17.578125 10.59375 
Q 21.921875 6.0625 28.421875 6.0625 
Q 33.25 6.0625 36.671875 8.59375 
Q 40.09375 11.140625 42.09375 16.703125 
z
M 13.234375 30.90625 
L 42.1875 30.90625 
Q 41.609375 37.453125 38.875 40.71875 
Q 34.671875 45.796875 27.984375 45.796875 
Q 21.921875 45.796875 17.796875 41.75 
Q 13.671875 37.703125 13.234375 30.90625 
z
" id="ArialMT-101"/>
      <path d="M 23.390625 -21.046875 
Q 16.109375 -11.859375 11.078125 0.4375 
Q 6.0625 12.75 6.0625 25.921875 
Q 6.0625 37.546875 9.8125 48.1875 
Q 14.203125 60.546875 23.390625 72.796875 
L 29.6875 72.796875 
Q 23.78125 62.640625 21.875 58.296875 
Q 18.890625 51.5625 17.1875 44.234375 
Q 15.09375 35.109375 15.09375 25.875 
Q 15.09375 2.390625 29.6875 -21.046875 
z
" id="ArialMT-40"/>
      <path d="M 3.078125 15.484375 
L 11.765625 16.84375 
Q 12.5 11.625 15.84375 8.84375 
Q 19.1875 6.0625 25.203125 6.0625 
Q 31.25 6.0625 34.171875 8.515625 
Q 37.109375 10.984375 37.109375 14.3125 
Q 37.109375 17.28125 34.515625 19 
Q 32.71875 20.171875 25.53125 21.96875 
Q 15.875 24.421875 12.140625 26.203125 
Q 8.40625 27.984375 6.46875 31.125 
Q 4.546875 34.28125 4.546875 38.09375 
Q 4.546875 41.546875 6.125 44.5 
Q 7.71875 47.46875 10.453125 49.421875 
Q 12.5 50.921875 16.03125 51.96875 
Q 19.578125 53.03125 23.640625 53.03125 
Q 29.734375 53.03125 34.34375 51.265625 
Q 38.96875 49.515625 41.15625 46.5 
Q 43.359375 43.5 44.1875 38.484375 
L 35.59375 37.3125 
Q 35.015625 41.3125 32.203125 43.546875 
Q 29.390625 45.796875 24.265625 45.796875 
Q 18.21875 45.796875 15.625 43.796875 
Q 13.03125 41.796875 13.03125 39.109375 
Q 13.03125 37.40625 14.109375 36.03125 
Q 15.1875 34.625 17.484375 33.6875 
Q 18.796875 33.203125 25.25 31.453125 
Q 34.578125 28.953125 38.25 27.359375 
Q 41.9375 25.78125 44.03125 22.75 
Q 46.140625 19.734375 46.140625 15.234375 
Q 46.140625 10.84375 43.578125 6.953125 
Q 41.015625 3.078125 36.171875 0.953125 
Q 31.34375 -1.171875 25.25 -1.171875 
Q 15.140625 -1.171875 9.84375 3.03125 
Q 4.546875 7.234375 3.078125 15.484375 
z
" id="ArialMT-115"/>
      <path d="M 12.359375 -21.046875 
L 6.0625 -21.046875 
Q 20.65625 2.390625 20.65625 25.875 
Q 20.65625 35.0625 18.5625 44.09375 
Q 16.890625 51.421875 13.921875 58.15625 
Q 12.015625 62.546875 6.0625 72.796875 
L 12.359375 72.796875 
Q 21.53125 60.546875 25.921875 48.1875 
Q 29.6875 37.546875 29.6875 25.921875 
Q 29.6875 12.75 24.625 0.4375 
Q 19.578125 -11.859375 12.359375 -21.046875 
z
" id="ArialMT-41"/>
     </defs>
     <g transform="translate(175.66647 174.402632)scale(0.16 -0.16)">
      <use xlink:href="#ArialMT-68"/>
      <use x="72.216797" xlink:href="#ArialMT-114"/>
      <use x="105.517578" xlink:href="#ArialMT-105"/>
      <use x="127.734375" xlink:href="#ArialMT-102"/>
      <use x="155.517578" xlink:href="#ArialMT-116"/>
      <use x="183.300781" xlink:href="#ArialMT-32"/>
      <use x="211.068359" xlink:href="#ArialMT-84"/>
      <use x="272.105469" xlink:href="#ArialMT-105"/>
      <use x="294.322266" xlink:href="#ArialMT-109"/>
      <use x="377.623047" xlink:href="#ArialMT-101"/>
      <use x="433.238281" xlink:href="#ArialMT-32"/>
      <use x="461.021484" xlink:href="#ArialMT-40"/>
      <use x="494.322266" xlink:href="#ArialMT-109"/>
      <use x="577.623047" xlink:href="#ArialMT-115"/>
      <use x="627.623047" xlink:href="#ArialMT-41"/>
     </g>
    </g>
   </g>
   <g id="matplotlib.axis_2">
    <g id="ytick_1">
     <g id="line2d_7">
      <defs>
       <path d="M 0 0 
L -3.5 0 
" id="mfa2ab5021c" style="stroke:#000000;stroke-width:0.8;"/>
      </defs>
      <g>
       <use style="stroke:#000000;stroke-width:0.8;" x="45.707544" xlink:href="#mfa2ab5021c" y="137.122632"/>
      </g>
     </g>
     <g id="text_7">
      <!-- 0 -->
      <g transform="translate(29.810044 142.848882)scale(0.16 -0.16)">
       <use xlink:href="#ArialMT-48"/>
      </g>
     </g>
    </g>
    <g id="ytick_2">
     <g id="line2d_8">
      <g>
       <use style="stroke:#000000;stroke-width:0.8;" x="45.707544" xlink:href="#mfa2ab5021c" y="90.285345"/>
      </g>
     </g>
     <g id="text_8">
      <!-- 2000000 -->
      <defs>
       <path d="M 50.34375 8.453125 
L 50.34375 0 
L 3.03125 0 
Q 2.9375 3.171875 4.046875 6.109375 
Q 5.859375 10.9375 9.828125 15.625 
Q 13.8125 20.3125 21.34375 26.46875 
Q 33.015625 36.03125 37.109375 41.625 
Q 41.21875 47.21875 41.21875 52.203125 
Q 41.21875 57.421875 37.46875 61 
Q 33.734375 64.59375 27.734375 64.59375 
Q 21.390625 64.59375 17.578125 60.78125 
Q 13.765625 56.984375 13.71875 50.25 
L 4.6875 51.171875 
Q 5.609375 61.28125 11.65625 66.578125 
Q 17.71875 71.875 27.9375 71.875 
Q 38.234375 71.875 44.234375 66.15625 
Q 50.25 60.453125 50.25 52 
Q 50.25 47.703125 48.484375 43.546875 
Q 46.734375 39.40625 42.65625 34.8125 
Q 38.578125 30.21875 29.109375 22.21875 
Q 21.1875 15.578125 18.9375 13.203125 
Q 16.703125 10.84375 15.234375 8.453125 
z
" id="ArialMT-50"/>
      </defs>
      <g transform="translate(-23.574956 96.011595)scale(0.16 -0.16)">
       <use xlink:href="#ArialMT-50"/>
       <use x="55.615234" xlink:href="#ArialMT-48"/>
       <use x="111.230469" xlink:href="#ArialMT-48"/>
       <use x="166.845703" xlink:href="#ArialMT-48"/>
       <use x="222.460938" xlink:href="#ArialMT-48"/>
       <use x="278.076172" xlink:href="#ArialMT-48"/>
       <use x="333.691406" xlink:href="#ArialMT-48"/>
      </g>
     </g>
    </g>
    <g id="ytick_3">
     <g id="line2d_9">
      <g>
       <use style="stroke:#000000;stroke-width:0.8;" x="45.707544" xlink:href="#mfa2ab5021c" y="43.448057"/>
      </g>
     </g>
     <g id="text_9">
      <!-- 4000000 -->
      <g transform="translate(-23.574956 49.174307)scale(0.16 -0.16)">
       <use xlink:href="#ArialMT-52"/>
       <use x="55.615234" xlink:href="#ArialMT-48"/>
       <use x="111.230469" xlink:href="#ArialMT-48"/>
       <use x="166.845703" xlink:href="#ArialMT-48"/>
       <use x="222.460938" xlink:href="#ArialMT-48"/>
       <use x="278.076172" xlink:href="#ArialMT-48"/>
       <use x="333.691406" xlink:href="#ArialMT-48"/>
      </g>
     </g>
    </g>
    <g id="text_10">
     <!-- Intensity -->
     <defs>
      <path d="M 9.328125 0 
L 9.328125 71.578125 
L 18.796875 71.578125 
L 18.796875 0 
z
" id="ArialMT-73"/>
      <path d="M 6.59375 0 
L 6.59375 51.859375 
L 14.5 51.859375 
L 14.5 44.484375 
Q 20.21875 53.03125 31 53.03125 
Q 35.6875 53.03125 39.625 51.34375 
Q 43.5625 49.65625 45.515625 46.921875 
Q 47.46875 44.1875 48.25 40.4375 
Q 48.734375 37.984375 48.734375 31.890625 
L 48.734375 0 
L 39.9375 0 
L 39.9375 31.546875 
Q 39.9375 36.921875 38.90625 39.578125 
Q 37.890625 42.234375 35.28125 43.8125 
Q 32.671875 45.40625 29.15625 45.40625 
Q 23.53125 45.40625 19.453125 41.84375 
Q 15.375 38.28125 15.375 28.328125 
L 15.375 0 
z
" id="ArialMT-110"/>
      <path d="M 6.203125 -19.96875 
L 5.21875 -11.71875 
Q 8.109375 -12.5 10.25 -12.5 
Q 13.1875 -12.5 14.9375 -11.515625 
Q 16.703125 -10.546875 17.828125 -8.796875 
Q 18.65625 -7.46875 20.515625 -2.25 
Q 20.75 -1.515625 21.296875 -0.09375 
L 1.609375 51.859375 
L 11.078125 51.859375 
L 21.875 21.828125 
Q 23.96875 16.109375 25.640625 9.8125 
Q 27.15625 15.875 29.25 21.625 
L 40.328125 51.859375 
L 49.125 51.859375 
L 29.390625 -0.875 
Q 26.21875 -9.421875 24.46875 -12.640625 
Q 22.125 -17 19.09375 -19.015625 
Q 16.0625 -21.046875 11.859375 -21.046875 
Q 9.328125 -21.046875 6.203125 -19.96875 
z
" id="ArialMT-121"/>
     </defs>
     <g transform="translate(-30.942456 105.97049)rotate(-90)scale(0.16 -0.16)">
      <use xlink:href="#ArialMT-73"/>
      <use x="27.783203" xlink:href="#ArialMT-110"/>
      <use x="83.398438" xlink:href="#ArialMT-116"/>
      <use x="111.181641" xlink:href="#ArialMT-101"/>
      <use x="166.796875" xlink:href="#ArialMT-110"/>
      <use x="222.412109" xlink:href="#ArialMT-115"/>
      <use x="272.412109" xlink:href="#ArialMT-105"/>
      <use x="294.628906" xlink:href="#ArialMT-116"/>
      <use x="322.412109" xlink:href="#ArialMT-121"/>
     </g>
    </g>
   </g>
   <g id="text_11">
    <!-- 57-158-BC4 Mobilogram -->
    <defs>
     <path d="M 4.734375 62.203125 
L 4.734375 70.65625 
L 51.078125 70.65625 
L 51.078125 63.8125 
Q 44.234375 56.546875 37.515625 44.484375 
Q 30.8125 32.421875 27.15625 19.671875 
Q 24.515625 10.6875 23.78125 0 
L 14.75 0 
Q 14.890625 8.453125 18.0625 20.40625 
Q 21.234375 32.375 27.171875 43.484375 
Q 33.109375 54.59375 39.796875 62.203125 
z
" id="ArialMT-55"/>
     <path d="M 3.171875 21.484375 
L 3.171875 30.328125 
L 30.171875 30.328125 
L 30.171875 21.484375 
z
" id="ArialMT-45"/>
     <path d="M 37.25 0 
L 28.46875 0 
L 28.46875 56 
Q 25.296875 52.984375 20.140625 49.953125 
Q 14.984375 46.921875 10.890625 45.40625 
L 10.890625 53.90625 
Q 18.265625 57.375 23.78125 62.296875 
Q 29.296875 67.234375 31.59375 71.875 
L 37.25 71.875 
z
" id="ArialMT-49"/>
     <path d="M 17.671875 38.8125 
Q 12.203125 40.828125 9.5625 44.53125 
Q 6.9375 48.25 6.9375 53.421875 
Q 6.9375 61.234375 12.546875 66.546875 
Q 18.171875 71.875 27.484375 71.875 
Q 36.859375 71.875 42.578125 66.421875 
Q 48.296875 60.984375 48.296875 53.171875 
Q 48.296875 48.1875 45.671875 44.5 
Q 43.0625 40.828125 37.75 38.8125 
Q 44.34375 36.671875 47.78125 31.875 
Q 51.21875 27.09375 51.21875 20.453125 
Q 51.21875 11.28125 44.71875 5.03125 
Q 38.234375 -1.21875 27.640625 -1.21875 
Q 17.046875 -1.21875 10.546875 5.046875 
Q 4.046875 11.328125 4.046875 20.703125 
Q 4.046875 27.6875 7.59375 32.390625 
Q 11.140625 37.109375 17.671875 38.8125 
z
M 15.921875 53.71875 
Q 15.921875 48.640625 19.1875 45.40625 
Q 22.46875 42.1875 27.6875 42.1875 
Q 32.765625 42.1875 36.015625 45.375 
Q 39.265625 48.578125 39.265625 53.21875 
Q 39.265625 58.0625 35.90625 61.359375 
Q 32.5625 64.65625 27.59375 64.65625 
Q 22.5625 64.65625 19.234375 61.421875 
Q 15.921875 58.203125 15.921875 53.71875 
z
M 13.09375 20.65625 
Q 13.09375 16.890625 14.875 13.375 
Q 16.65625 9.859375 20.171875 7.921875 
Q 23.6875 6 27.734375 6 
Q 34.03125 6 38.125 10.046875 
Q 42.234375 14.109375 42.234375 20.359375 
Q 42.234375 26.703125 38.015625 30.859375 
Q 33.796875 35.015625 27.4375 35.015625 
Q 21.234375 35.015625 17.15625 30.90625 
Q 13.09375 26.8125 13.09375 20.65625 
z
" id="ArialMT-56"/>
     <path d="M 7.328125 0 
L 7.328125 71.578125 
L 34.1875 71.578125 
Q 42.390625 71.578125 47.34375 69.40625 
Q 52.296875 67.234375 55.09375 62.71875 
Q 57.90625 58.203125 57.90625 53.265625 
Q 57.90625 48.6875 55.421875 44.625 
Q 52.9375 40.578125 47.90625 38.09375 
Q 54.390625 36.1875 57.875 31.59375 
Q 61.375 27 61.375 20.75 
Q 61.375 15.71875 59.25 11.390625 
Q 57.125 7.078125 54 4.734375 
Q 50.875 2.390625 46.15625 1.1875 
Q 41.453125 0 34.625 0 
z
M 16.796875 41.5 
L 32.28125 41.5 
Q 38.578125 41.5 41.3125 42.328125 
Q 44.921875 43.40625 46.75 45.890625 
Q 48.578125 48.390625 48.578125 52.15625 
Q 48.578125 55.71875 46.875 58.421875 
Q 45.171875 61.140625 41.984375 62.140625 
Q 38.8125 63.140625 31.109375 63.140625 
L 16.796875 63.140625 
z
M 16.796875 8.453125 
L 34.625 8.453125 
Q 39.203125 8.453125 41.0625 8.796875 
Q 44.34375 9.375 46.53125 10.734375 
Q 48.734375 12.109375 50.140625 14.71875 
Q 51.5625 17.328125 51.5625 20.75 
Q 51.5625 24.75 49.515625 27.703125 
Q 47.46875 30.671875 43.828125 31.859375 
Q 40.1875 33.0625 33.34375 33.0625 
L 16.796875 33.0625 
z
" id="ArialMT-66"/>
     <path d="M 58.796875 25.09375 
L 68.265625 22.703125 
Q 65.28125 11.03125 57.546875 4.90625 
Q 49.8125 -1.21875 38.625 -1.21875 
Q 27.046875 -1.21875 19.796875 3.484375 
Q 12.546875 8.203125 8.765625 17.140625 
Q 4.984375 26.078125 4.984375 36.328125 
Q 4.984375 47.515625 9.25 55.828125 
Q 13.53125 64.15625 21.40625 68.46875 
Q 29.296875 72.796875 38.765625 72.796875 
Q 49.515625 72.796875 56.828125 67.328125 
Q 64.15625 61.859375 67.046875 51.953125 
L 57.71875 49.75 
Q 55.21875 57.5625 50.484375 61.125 
Q 45.75 64.703125 38.578125 64.703125 
Q 30.328125 64.703125 24.78125 60.734375 
Q 19.234375 56.78125 16.984375 50.109375 
Q 14.75 43.453125 14.75 36.375 
Q 14.75 27.25 17.40625 20.4375 
Q 20.0625 13.625 25.671875 10.25 
Q 31.296875 6.890625 37.84375 6.890625 
Q 45.796875 6.890625 51.3125 11.46875 
Q 56.84375 16.0625 58.796875 25.09375 
z
" id="ArialMT-67"/>
     <path d="M 7.421875 0 
L 7.421875 71.578125 
L 21.6875 71.578125 
L 38.625 20.90625 
Q 40.96875 13.8125 42.046875 10.296875 
Q 43.265625 14.203125 45.84375 21.78125 
L 62.984375 71.578125 
L 75.734375 71.578125 
L 75.734375 0 
L 66.609375 0 
L 66.609375 59.90625 
L 45.796875 0 
L 37.25 0 
L 16.546875 60.9375 
L 16.546875 0 
z
" id="ArialMT-77"/>
     <path d="M 3.328125 25.921875 
Q 3.328125 40.328125 11.328125 47.265625 
Q 18.015625 53.03125 27.640625 53.03125 
Q 38.328125 53.03125 45.109375 46.015625 
Q 51.90625 39.015625 51.90625 26.65625 
Q 51.90625 16.65625 48.90625 10.90625 
Q 45.90625 5.171875 40.15625 2 
Q 34.421875 -1.171875 27.640625 -1.171875 
Q 16.75 -1.171875 10.03125 5.8125 
Q 3.328125 12.796875 3.328125 25.921875 
z
M 12.359375 25.921875 
Q 12.359375 15.96875 16.703125 11.015625 
Q 21.046875 6.0625 27.640625 6.0625 
Q 34.1875 6.0625 38.53125 11.03125 
Q 42.875 16.015625 42.875 26.21875 
Q 42.875 35.84375 38.5 40.796875 
Q 34.125 45.75 27.640625 45.75 
Q 21.046875 45.75 16.703125 40.8125 
Q 12.359375 35.890625 12.359375 25.921875 
z
" id="ArialMT-111"/>
     <path d="M 14.703125 0 
L 6.546875 0 
L 6.546875 71.578125 
L 15.328125 71.578125 
L 15.328125 46.046875 
Q 20.90625 53.03125 29.546875 53.03125 
Q 34.328125 53.03125 38.59375 51.09375 
Q 42.875 49.171875 45.625 45.671875 
Q 48.390625 42.1875 49.953125 37.25 
Q 51.515625 32.328125 51.515625 26.703125 
Q 51.515625 13.375 44.921875 6.09375 
Q 38.328125 -1.171875 29.109375 -1.171875 
Q 19.921875 -1.171875 14.703125 6.5 
z
M 14.59375 26.3125 
Q 14.59375 17 17.140625 12.84375 
Q 21.296875 6.0625 28.375 6.0625 
Q 34.125 6.0625 38.328125 11.0625 
Q 42.53125 16.0625 42.53125 25.984375 
Q 42.53125 36.140625 38.5 40.96875 
Q 34.46875 45.796875 28.765625 45.796875 
Q 23 45.796875 18.796875 40.796875 
Q 14.59375 35.796875 14.59375 26.3125 
z
" id="ArialMT-98"/>
     <path d="M 6.390625 0 
L 6.390625 71.578125 
L 15.1875 71.578125 
L 15.1875 0 
z
" id="ArialMT-108"/>
     <path d="M 4.984375 -4.296875 
L 13.53125 -5.5625 
Q 14.0625 -9.515625 16.5 -11.328125 
Q 19.78125 -13.765625 25.4375 -13.765625 
Q 31.546875 -13.765625 34.859375 -11.328125 
Q 38.1875 -8.890625 39.359375 -4.5 
Q 40.046875 -1.8125 39.984375 6.78125 
Q 34.234375 0 25.640625 0 
Q 14.9375 0 9.078125 7.71875 
Q 3.21875 15.4375 3.21875 26.21875 
Q 3.21875 33.640625 5.90625 39.90625 
Q 8.59375 46.1875 13.6875 49.609375 
Q 18.796875 53.03125 25.6875 53.03125 
Q 34.859375 53.03125 40.828125 45.609375 
L 40.828125 51.859375 
L 48.921875 51.859375 
L 48.921875 7.03125 
Q 48.921875 -5.078125 46.453125 -10.125 
Q 44 -15.1875 38.640625 -18.109375 
Q 33.296875 -21.046875 25.484375 -21.046875 
Q 16.21875 -21.046875 10.5 -16.875 
Q 4.78125 -12.703125 4.984375 -4.296875 
z
M 12.25 26.859375 
Q 12.25 16.65625 16.296875 11.96875 
Q 20.359375 7.28125 26.46875 7.28125 
Q 32.515625 7.28125 36.609375 11.9375 
Q 40.71875 16.609375 40.71875 26.5625 
Q 40.71875 36.078125 36.5 40.90625 
Q 32.28125 45.75 26.3125 45.75 
Q 20.453125 45.75 16.34375 40.984375 
Q 12.25 36.234375 12.25 26.859375 
z
" id="ArialMT-103"/>
     <path d="M 40.4375 6.390625 
Q 35.546875 2.25 31.03125 0.53125 
Q 26.515625 -1.171875 21.34375 -1.171875 
Q 12.796875 -1.171875 8.203125 3 
Q 3.609375 7.171875 3.609375 13.671875 
Q 3.609375 17.484375 5.34375 20.625 
Q 7.078125 23.78125 9.890625 25.6875 
Q 12.703125 27.59375 16.21875 28.5625 
Q 18.796875 29.25 24.03125 29.890625 
Q 34.671875 31.15625 39.703125 32.90625 
Q 39.75 34.71875 39.75 35.203125 
Q 39.75 40.578125 37.25 42.78125 
Q 33.890625 45.75 27.25 45.75 
Q 21.046875 45.75 18.09375 43.578125 
Q 15.140625 41.40625 13.71875 35.890625 
L 5.125 37.0625 
Q 6.296875 42.578125 8.984375 45.96875 
Q 11.671875 49.359375 16.75 51.1875 
Q 21.828125 53.03125 28.515625 53.03125 
Q 35.15625 53.03125 39.296875 51.46875 
Q 43.453125 49.90625 45.40625 47.53125 
Q 47.359375 45.171875 48.140625 41.546875 
Q 48.578125 39.3125 48.578125 33.453125 
L 48.578125 21.734375 
Q 48.578125 9.46875 49.140625 6.21875 
Q 49.703125 2.984375 51.375 0 
L 42.1875 0 
Q 40.828125 2.734375 40.4375 6.390625 
z
M 39.703125 26.03125 
Q 34.90625 24.078125 25.34375 22.703125 
Q 19.921875 21.921875 17.671875 20.9375 
Q 15.4375 19.96875 14.203125 18.09375 
Q 12.984375 16.21875 12.984375 13.921875 
Q 12.984375 10.40625 15.640625 8.0625 
Q 18.3125 5.71875 23.4375 5.71875 
Q 28.515625 5.71875 32.46875 7.9375 
Q 36.421875 10.15625 38.28125 14.015625 
Q 39.703125 17 39.703125 22.796875 
z
" id="ArialMT-97"/>
    </defs>
    <g transform="translate(123.96222 9.235848)scale(0.192 -0.192)">
     <use xlink:href="#ArialMT-53"/>
     <use x="55.615234" xlink:href="#ArialMT-55"/>
     <use x="111.230469" xlink:href="#ArialMT-45"/>
     <use x="144.53125" xlink:href="#ArialMT-49"/>
     <use x="200.146484" xlink:href="#ArialMT-53"/>
     <use x="255.761719" xlink:href="#ArialMT-56"/>
     <use x="311.376953" xlink:href="#ArialMT-45"/>
     <use x="344.677734" xlink:href="#ArialMT-66"/>
     <use x="411.376953" xlink:href="#ArialMT-67"/>
     <use x="483.59375" xlink:href="#ArialMT-52"/>
     <use x="539.208984" xlink:href="#ArialMT-32"/>
     <use x="566.992188" xlink:href="#ArialMT-77"/>
     <use x="650.292969" xlink:href="#ArialMT-111"/>
     <use x="705.908203" xlink:href="#ArialMT-98"/>
     <use x="761.523438" xlink:href="#ArialMT-105"/>
     <use x="783.740234" xlink:href="#ArialMT-108"/>
     <use x="805.957031" xlink:href="#ArialMT-111"/>
     <use x="861.572266" xlink:href="#ArialMT-103"/>
     <use x="917.1875" xlink:href="#ArialMT-114"/>
     <use x="950.488281" xlink:href="#ArialMT-97"/>
     <use x="1006.103516" xlink:href="#ArialMT-109"/>
    </g>
   </g>
  </g>
 </g>
 <defs>
  <clipPath id="p331f94b2f9">
   <rect height="121.886784" width="365.660352" x="45.707544" y="15.235848"/>
  </clipPath>
 </defs>
</svg>
