<?xml version="1.0" encoding="utf-8"?>
<!-- Generator: Adobe Illustrator 19.0.0, SVG Export Plug-In . SVG Version: 6.00 Build 0)  -->
<svg version="1.1" id="Layer_1" xmlns="http://www.w3.org/2000/svg" xmlns:xlink="http://www.w3.org/1999/xlink" x="0px" y="0px"
	 viewBox="0 0 612 792" style="enable-background:new 0 0 612 792;" xml:space="preserve">
<style type="text/css">
	.st0{fill:none;stroke:#000000;stroke-width:0.48;stroke-linecap:square;stroke-linejoin:round;stroke-miterlimit:10;}
	.st1{fill:none;stroke:#000000;stroke-width:0.48;stroke-linejoin:round;stroke-miterlimit:10;}
	.st2{font-family:'Arial-ItalicMT';}
	.st3{font-size:16px;}
	.st4{font-family:'ArialMT';}
</style>
<g>
	<path class="st0" d="M30.3,325.6h382.7 M30.3,647.9h382.7"/>
	<path class="st1" d="M84.1,325.6V323 M143.8,325.6V323 M203.7,325.6V323 M263.5,325.6V323 M323.2,325.6V323 M383.1,325.6V323
		 M54.2,325.6v-5.2 M114,325.6v-5.2 M173.8,325.6v-5.2 M233.5,325.6v-5.2 M293.4,325.6v-5.2 M353.1,325.6v-5.2 M412.9,325.6v-5.2"/>
	<path class="st0" d="M412.9,647.9V325.6 M30.3,647.9V325.6"/>
	<path class="st1" d="M412.9,607.9h2.6 M412.9,534.9h2.6 M412.9,462h2.6 M412.9,389h2.6 M412.9,644.3h5.2 M412.9,571.4h5.2
		 M412.9,498.4h5.2 M412.9,425.5h5.2 M412.9,352.6h5.2"/>
	<path d="M43.7,306.7c-0.6-0.2-1-0.5-1.3-0.9c-0.3-0.4-0.4-0.9-0.4-1.4c0-0.8,0.3-1.5,0.9-2.1c0.6-0.6,1.4-0.8,2.4-0.8
		c1,0,1.8,0.3,2.4,0.9c0.6,0.6,0.9,1.3,0.9,2.1c0,0.5-0.1,1-0.4,1.4c-0.3,0.4-0.7,0.7-1.3,0.9c0.7,0.2,1.2,0.6,1.6,1.1
		c0.4,0.5,0.5,1.1,0.5,1.8c0,1-0.3,1.8-1,2.5c-0.7,0.7-1.6,1-2.7,1s-2-0.3-2.7-1s-1-1.5-1-2.5c0-0.7,0.2-1.4,0.6-1.9
		C42.5,307.2,43,306.9,43.7,306.7L43.7,306.7z M43.4,304.3c0,0.5,0.2,1,0.5,1.3s0.8,0.5,1.4,0.5c0.5,0,1-0.2,1.3-0.5
		c0.3-0.3,0.5-0.8,0.5-1.3c0-0.5-0.2-0.9-0.5-1.3c-0.4-0.4-0.8-0.5-1.3-0.5c-0.5,0-1,0.2-1.3,0.5C43.6,303.4,43.4,303.8,43.4,304.3
		L43.4,304.3z M43,309.6c0,0.4,0.1,0.8,0.3,1.2c0.2,0.4,0.5,0.7,0.8,0.9c0.4,0.2,0.8,0.3,1.2,0.3c0.7,0,1.2-0.2,1.7-0.6
		c0.4-0.4,0.7-1,0.7-1.6c0-0.7-0.2-1.2-0.7-1.7c-0.4-0.4-1-0.7-1.7-0.7c-0.7,0-1.2,0.2-1.6,0.7C43.2,308.4,43,308.9,43,309.6
		L43,309.6z"/>
	<path d="M50.4,307.3c0-1.4,0.1-2.4,0.4-3.3c0.3-0.8,0.7-1.5,1.2-1.9s1.2-0.7,2.1-0.7c0.6,0,1.2,0.1,1.6,0.4
		c0.5,0.2,0.8,0.6,1.1,1.1c0.3,0.5,0.5,1,0.7,1.7s0.3,1.6,0.3,2.7c0,1.3-0.1,2.4-0.4,3.2s-0.7,1.5-1.2,1.9c-0.5,0.4-1.2,0.7-2.1,0.7
		c-1.1,0-2-0.4-2.6-1.2C50.7,311,50.4,309.4,50.4,307.3L50.4,307.3z M51.8,307.3c0,1.9,0.2,3.1,0.7,3.7c0.4,0.6,1,0.9,1.6,0.9
		c0.6,0,1.2-0.3,1.6-0.9c0.4-0.6,0.7-1.9,0.7-3.7c0-1.9-0.2-3.1-0.7-3.7c-0.4-0.6-1-0.9-1.6-0.9c-0.6,0-1.2,0.3-1.5,0.8
		C52,304.1,51.8,305.4,51.8,307.3L51.8,307.3z"/>
	<path d="M59.2,307.3c0-1.4,0.1-2.4,0.4-3.3c0.3-0.8,0.7-1.5,1.2-1.9s1.2-0.7,2.1-0.7c0.6,0,1.2,0.1,1.6,0.4
		c0.5,0.2,0.8,0.6,1.1,1.1c0.3,0.5,0.5,1,0.7,1.7s0.3,1.6,0.3,2.7c0,1.3-0.1,2.4-0.4,3.2s-0.7,1.5-1.2,1.9c-0.5,0.4-1.2,0.7-2.1,0.7
		c-1.1,0-2-0.4-2.6-1.2C59.6,311,59.2,309.4,59.2,307.3L59.2,307.3z M60.6,307.3c0,1.9,0.2,3.1,0.7,3.7c0.4,0.6,1,0.9,1.6,0.9
		c0.6,0,1.2-0.3,1.6-0.9s0.7-1.9,0.7-3.7c0-1.9-0.2-3.1-0.7-3.7s-1-0.9-1.6-0.9c-0.6,0-1.2,0.3-1.5,0.8
		C60.9,304.1,60.6,305.4,60.6,307.3L60.6,307.3z"/>
	<path d="M103.5,306.7c-0.6-0.2-1-0.5-1.3-0.9c-0.3-0.4-0.4-0.9-0.4-1.4c0-0.8,0.3-1.5,0.9-2.1c0.6-0.6,1.4-0.8,2.4-0.8
		c1,0,1.8,0.3,2.4,0.9c0.6,0.6,0.9,1.3,0.9,2.1c0,0.5-0.1,1-0.4,1.4s-0.7,0.7-1.3,0.9c0.7,0.2,1.2,0.6,1.6,1.1
		c0.4,0.5,0.5,1.1,0.5,1.8c0,1-0.3,1.8-1,2.5c-0.7,0.7-1.6,1-2.7,1c-1.1,0-2-0.3-2.7-1c-0.7-0.7-1-1.5-1-2.5c0-0.7,0.2-1.4,0.6-1.9
		C102.2,307.2,102.8,306.9,103.5,306.7L103.5,306.7z M103.2,304.3c0,0.5,0.2,1,0.5,1.3c0.3,0.3,0.8,0.5,1.4,0.5c0.5,0,1-0.2,1.3-0.5
		c0.3-0.3,0.5-0.8,0.5-1.3c0-0.5-0.2-0.9-0.5-1.3c-0.4-0.4-0.8-0.5-1.3-0.5c-0.5,0-1,0.2-1.3,0.5
		C103.4,303.4,103.2,303.8,103.2,304.3L103.2,304.3z M102.7,309.6c0,0.4,0.1,0.8,0.3,1.2c0.2,0.4,0.5,0.7,0.8,0.9
		c0.4,0.2,0.8,0.3,1.2,0.3c0.7,0,1.2-0.2,1.7-0.6c0.4-0.4,0.7-1,0.7-1.6c0-0.7-0.2-1.2-0.7-1.7c-0.4-0.4-1-0.7-1.7-0.7
		c-0.7,0-1.2,0.2-1.6,0.7C102.9,308.4,102.7,308.9,102.7,309.6L102.7,309.6z"/>
	<path d="M110.1,309.9c1.5-0.1,0,0,1.5-0.1c0.1,0.7,0.4,1.3,0.8,1.6c0.4,0.4,0.9,0.5,1.4,0.5c0.7,0,1.2-0.3,1.7-0.8s0.7-1.2,0.7-2
		c0-0.8-0.2-1.4-0.7-1.9c-0.4-0.5-1-0.7-1.8-0.7c-0.5,0-0.9,0.1-1.2,0.3c-0.4,0.2-0.6,0.5-0.9,0.8c-1.3-0.2,0,0-1.3-0.2
		c1.1-5.9,0,0,1.1-5.9c5.7,0,0,0,5.7,0c0,1.3,0,0,0,1.3c-4.6,0,0,0-4.6,0c-0.6,3.1,0,0-0.6,3.1c0.7-0.5,1.4-0.7,2.2-0.7
		c1,0,1.8,0.3,2.5,1s1,1.6,1,2.7c0,1-0.3,1.9-0.9,2.7c-0.7,0.9-1.7,1.4-3,1.4c-1,0-1.9-0.3-2.5-0.9
		C110.6,311.6,110.2,310.9,110.1,309.9L110.1,309.9z"/>
	<path d="M118.9,307.3c0-1.4,0.1-2.4,0.4-3.3c0.3-0.8,0.7-1.5,1.2-1.9s1.2-0.7,2.1-0.7c0.6,0,1.2,0.1,1.6,0.4
		c0.5,0.2,0.8,0.6,1.1,1.1c0.3,0.5,0.5,1,0.7,1.7c0.2,0.7,0.3,1.6,0.3,2.7c0,1.3-0.1,2.4-0.4,3.2s-0.7,1.5-1.2,1.9
		c-0.5,0.4-1.2,0.7-2.1,0.7c-1.1,0-2-0.4-2.6-1.2C119.3,311,118.9,309.4,118.9,307.3L118.9,307.3z M120.4,307.3
		c0,1.9,0.2,3.1,0.7,3.7c0.4,0.6,1,0.9,1.6,0.9s1.2-0.3,1.6-0.9s0.7-1.9,0.7-3.7c0-1.9-0.2-3.1-0.7-3.7s-1-0.9-1.6-0.9
		c-0.6,0-1.2,0.3-1.5,0.8C120.6,304.1,120.4,305.4,120.4,307.3L120.4,307.3z"/>
	<path d="M161.3,310.3c1.3-0.1,0,0,1.3-0.1c0.1,0.6,0.3,1.1,0.7,1.4c0.3,0.3,0.7,0.4,1.2,0.4c0.4,0,0.8-0.1,1.1-0.3
		c0.3-0.2,0.6-0.5,0.8-0.8c0.2-0.3,0.4-0.8,0.5-1.3c0.1-0.6,0.2-1.1,0.2-1.7c0-0.1,0-0.2,0-0.3c-0.3,0.4-0.7,0.8-1.1,1.1
		c-0.5,0.3-1,0.4-1.6,0.4c-0.9,0-1.7-0.3-2.4-1c-0.7-0.7-1-1.6-1-2.7c0-1.2,0.3-2.1,1-2.8c0.7-0.7,1.5-1.1,2.6-1.1
		c0.7,0,1.4,0.2,2,0.6c0.6,0.4,1.1,1,1.4,1.7c0.3,0.7,0.5,1.8,0.5,3.2c0,1.5-0.2,2.6-0.5,3.5c-0.3,0.9-0.8,1.5-1.4,2
		c-0.6,0.5-1.4,0.7-2.2,0.7c-0.9,0-1.6-0.2-2.2-0.7C161.8,311.8,161.4,311.2,161.3,310.3L161.3,310.3z M167.1,305.2
		c0-0.8-0.2-1.4-0.6-1.9c-0.4-0.5-0.9-0.7-1.5-0.7c-0.6,0-1.2,0.3-1.6,0.8c-0.5,0.5-0.7,1.2-0.7,2c0,0.7,0.2,1.3,0.7,1.8
		c0.4,0.5,1,0.7,1.6,0.7c0.6,0,1.2-0.2,1.6-0.7C166.9,306.6,167.1,306,167.1,305.2L167.1,305.2z"/>
	<path d="M169.9,307.3c0-1.4,0.1-2.4,0.4-3.3c0.3-0.8,0.7-1.5,1.2-1.9s1.2-0.7,2.1-0.7c0.6,0,1.2,0.1,1.6,0.4
		c0.5,0.2,0.8,0.6,1.1,1.1c0.3,0.5,0.5,1,0.7,1.7c0.2,0.7,0.3,1.6,0.3,2.7c0,1.3-0.1,2.4-0.4,3.2s-0.7,1.5-1.2,1.9
		c-0.5,0.4-1.2,0.7-2.1,0.7c-1.1,0-2-0.4-2.6-1.2C170.3,311,169.9,309.4,169.9,307.3L169.9,307.3z M171.4,307.3
		c0,1.9,0.2,3.1,0.7,3.7c0.4,0.6,1,0.9,1.6,0.9s1.2-0.3,1.6-0.9s0.7-1.9,0.7-3.7c0-1.9-0.2-3.1-0.7-3.7s-1-0.9-1.6-0.9
		c-0.6,0-1.2,0.3-1.5,0.8C171.6,304.1,171.4,305.4,171.4,307.3L171.4,307.3z"/>
	<path d="M178.8,307.3c0-1.4,0.1-2.4,0.4-3.3c0.3-0.8,0.7-1.5,1.2-1.9c0.5-0.4,1.2-0.7,2.1-0.7c0.6,0,1.2,0.1,1.6,0.4
		c0.5,0.2,0.8,0.6,1.1,1.1c0.3,0.5,0.5,1,0.7,1.7s0.3,1.6,0.3,2.7c0,1.3-0.1,2.4-0.4,3.2c-0.3,0.8-0.7,1.5-1.2,1.9
		c-0.5,0.4-1.2,0.7-2.1,0.7c-1.1,0-2-0.4-2.6-1.2C179.1,311,178.8,309.4,178.8,307.3L178.8,307.3z M180.2,307.3
		c0,1.9,0.2,3.1,0.7,3.7c0.4,0.6,1,0.9,1.6,0.9c0.6,0,1.2-0.3,1.6-0.9c0.4-0.6,0.7-1.9,0.7-3.7c0-1.9-0.2-3.1-0.7-3.7
		c-0.4-0.6-1-0.9-1.6-0.9c-0.6,0-1.2,0.3-1.5,0.8C180.4,304.1,180.2,305.4,180.2,307.3L180.2,307.3z"/>
	<path d="M221.1,310.3c1.3-0.1,0,0,1.3-0.1c0.1,0.6,0.3,1.1,0.7,1.4c0.3,0.3,0.7,0.4,1.2,0.4c0.4,0,0.8-0.1,1.1-0.3
		c0.3-0.2,0.6-0.5,0.8-0.8c0.2-0.3,0.4-0.8,0.5-1.3c0.1-0.6,0.2-1.1,0.2-1.7c0-0.1,0-0.2,0-0.3c-0.3,0.4-0.7,0.8-1.1,1.1
		c-0.5,0.3-1,0.4-1.6,0.4c-0.9,0-1.7-0.3-2.4-1c-0.7-0.7-1-1.6-1-2.7c0-1.2,0.3-2.1,1-2.8s1.5-1.1,2.6-1.1c0.7,0,1.4,0.2,2,0.6
		c0.6,0.4,1.1,1,1.4,1.7s0.5,1.8,0.5,3.2c0,1.5-0.2,2.6-0.5,3.5s-0.8,1.5-1.4,2c-0.6,0.5-1.4,0.7-2.2,0.7c-0.9,0-1.6-0.2-2.2-0.7
		S221.2,311.2,221.1,310.3L221.1,310.3z M226.8,305.2c0-0.8-0.2-1.4-0.6-1.9s-0.9-0.7-1.5-0.7c-0.6,0-1.2,0.3-1.6,0.8
		c-0.5,0.5-0.7,1.2-0.7,2c0,0.7,0.2,1.3,0.7,1.8c0.4,0.5,1,0.7,1.6,0.7c0.6,0,1.2-0.2,1.6-0.7C226.6,306.6,226.8,306,226.8,305.2
		L226.8,305.2z"/>
	<path d="M229.7,309.9c1.5-0.1,0,0,1.5-0.1c0.1,0.7,0.4,1.3,0.8,1.6c0.4,0.4,0.9,0.5,1.4,0.5c0.7,0,1.2-0.3,1.7-0.8
		c0.5-0.5,0.7-1.2,0.7-2c0-0.8-0.2-1.4-0.7-1.9s-1-0.7-1.8-0.7c-0.5,0-0.9,0.1-1.2,0.3c-0.4,0.2-0.6,0.5-0.9,0.8
		c-1.3-0.2,0,0-1.3-0.2c1.1-5.9,0,0,1.1-5.9c5.7,0,0,0,5.7,0c0,1.3,0,0,0,1.3c-4.6,0,0,0-4.6,0c-0.6,3.1,0,0-0.6,3.1
		c0.7-0.5,1.4-0.7,2.2-0.7c1,0,1.8,0.3,2.5,1s1,1.6,1,2.7c0,1-0.3,1.9-0.9,2.7c-0.7,0.9-1.7,1.4-3,1.4c-1,0-1.9-0.3-2.5-0.9
		S229.8,310.9,229.7,309.9L229.7,309.9z"/>
	<path d="M238.5,307.3c0-1.4,0.1-2.4,0.4-3.3c0.3-0.8,0.7-1.5,1.2-1.9c0.5-0.4,1.2-0.7,2.1-0.7c0.6,0,1.2,0.1,1.6,0.4
		c0.5,0.2,0.8,0.6,1.1,1.1c0.3,0.5,0.5,1,0.7,1.7s0.3,1.6,0.3,2.7c0,1.3-0.1,2.4-0.4,3.2s-0.7,1.5-1.2,1.9c-0.5,0.4-1.2,0.7-2.1,0.7
		c-1.1,0-2-0.4-2.6-1.2C238.9,311,238.5,309.4,238.5,307.3L238.5,307.3z M240,307.3c0,1.9,0.2,3.1,0.7,3.7c0.4,0.6,1,0.9,1.6,0.9
		s1.2-0.3,1.6-0.9c0.4-0.6,0.7-1.9,0.7-3.7c0-1.9-0.2-3.1-0.7-3.7c-0.4-0.6-1-0.9-1.6-0.9c-0.6,0-1.2,0.3-1.5,0.8
		C240.2,304.1,240,305.4,240,307.3L240,307.3z"/>
	<path d="M281.5,312.9c-1.4,0,0,0-1.4,0c0-8.9,0,0,0-8.9c-0.3,0.3-0.8,0.6-1.3,1c-0.5,0.3-1,0.6-1.5,0.7c0-1.4,0,0,0-1.4
		c0.8-0.4,1.5-0.8,2.1-1.3c0.6-0.5,1-1,1.2-1.5c0.9,0,0,0,0.9,0C281.5,312.9,281.5,301.4,281.5,312.9L281.5,312.9z"/>
	<path d="M285.1,307.3c0-1.4,0.1-2.4,0.4-3.3c0.3-0.8,0.7-1.5,1.2-1.9c0.5-0.4,1.2-0.7,2.1-0.7c0.6,0,1.2,0.1,1.6,0.4
		c0.5,0.2,0.8,0.6,1.1,1.1c0.3,0.5,0.5,1,0.7,1.7c0.2,0.7,0.3,1.6,0.3,2.7c0,1.3-0.1,2.4-0.4,3.2s-0.7,1.5-1.2,1.9
		c-0.5,0.4-1.2,0.7-2.1,0.7c-1.1,0-2-0.4-2.6-1.2C285.5,311,285.1,309.4,285.1,307.3L285.1,307.3z M286.5,307.3
		c0,1.9,0.2,3.1,0.7,3.7c0.4,0.6,1,0.9,1.6,0.9c0.6,0,1.2-0.3,1.6-0.9c0.4-0.6,0.7-1.9,0.7-3.7c0-1.9-0.2-3.1-0.7-3.7
		c-0.4-0.6-1-0.9-1.6-0.9c-0.6,0-1.2,0.3-1.5,0.8C286.8,304.1,286.5,305.4,286.5,307.3L286.5,307.3z"/>
	<path d="M293.9,307.3c0-1.4,0.1-2.4,0.4-3.3c0.3-0.8,0.7-1.5,1.2-1.9c0.5-0.4,1.2-0.7,2.1-0.7c0.6,0,1.2,0.1,1.6,0.4
		c0.5,0.2,0.8,0.6,1.1,1.1c0.3,0.5,0.5,1,0.7,1.7s0.3,1.6,0.3,2.7c0,1.3-0.1,2.4-0.4,3.2s-0.7,1.5-1.2,1.9c-0.5,0.4-1.2,0.7-2.1,0.7
		c-1.1,0-2-0.4-2.6-1.2C294.3,311,293.9,309.4,293.9,307.3L293.9,307.3z M295.3,307.3c0,1.9,0.2,3.1,0.7,3.7c0.4,0.6,1,0.9,1.6,0.9
		c0.6,0,1.2-0.3,1.6-0.9c0.4-0.6,0.7-1.9,0.7-3.7c0-1.9-0.2-3.1-0.7-3.7c-0.4-0.6-1-0.9-1.6-0.9c-0.6,0-1.2,0.3-1.5,0.8
		C295.6,304.1,295.3,305.4,295.3,307.3L295.3,307.3z"/>
	<path d="M302.7,307.3c0-1.4,0.1-2.4,0.4-3.3c0.3-0.8,0.7-1.5,1.2-1.9c0.5-0.4,1.2-0.7,2.1-0.7c0.6,0,1.2,0.1,1.6,0.4
		c0.5,0.2,0.8,0.6,1.1,1.1c0.3,0.5,0.5,1,0.7,1.7s0.3,1.6,0.3,2.7c0,1.3-0.1,2.4-0.4,3.2s-0.7,1.5-1.2,1.9c-0.5,0.4-1.2,0.7-2.1,0.7
		c-1.1,0-2-0.4-2.6-1.2C303.1,311,302.7,309.4,302.7,307.3L302.7,307.3z M304.2,307.3c0,1.9,0.2,3.1,0.7,3.7c0.4,0.6,1,0.9,1.6,0.9
		c0.6,0,1.2-0.3,1.6-0.9c0.4-0.6,0.7-1.9,0.7-3.7c0-1.9-0.2-3.1-0.7-3.7c-0.4-0.6-1-0.9-1.6-0.9c-0.6,0-1.2,0.3-1.5,0.8
		C304.4,304.1,304.2,305.4,304.2,307.3L304.2,307.3z"/>
	<path d="M341.3,312.9c-1.4,0,0,0-1.4,0c0-8.9,0,0,0-8.9c-0.3,0.3-0.8,0.6-1.3,1c-0.5,0.3-1,0.6-1.5,0.7c0-1.4,0,0,0-1.4
		c0.8-0.4,1.5-0.8,2.1-1.3s1-1,1.2-1.5c0.9,0,0,0,0.9,0C341.3,312.9,341.3,301.4,341.3,312.9L341.3,312.9z"/>
	<path d="M344.8,307.3c0-1.4,0.1-2.4,0.4-3.3c0.3-0.8,0.7-1.5,1.2-1.9s1.2-0.7,2.1-0.7c0.6,0,1.2,0.1,1.6,0.4
		c0.5,0.2,0.8,0.6,1.1,1.1c0.3,0.5,0.5,1,0.7,1.7s0.3,1.6,0.3,2.7c0,1.3-0.1,2.4-0.4,3.2c-0.3,0.8-0.7,1.5-1.2,1.9
		c-0.5,0.4-1.2,0.7-2.1,0.7c-1.1,0-2-0.4-2.6-1.2C345.2,311,344.8,309.4,344.8,307.3L344.8,307.3z M346.3,307.3
		c0,1.9,0.2,3.1,0.7,3.7c0.4,0.6,1,0.9,1.6,0.9c0.6,0,1.2-0.3,1.6-0.9c0.4-0.6,0.7-1.9,0.7-3.7c0-1.9-0.2-3.1-0.7-3.7
		c-0.4-0.6-1-0.9-1.6-0.9c-0.6,0-1.2,0.3-1.5,0.8C346.5,304.1,346.3,305.4,346.3,307.3L346.3,307.3z"/>
	<path d="M353.7,309.9c1.5-0.1,0,0,1.5-0.1c0.1,0.7,0.4,1.3,0.8,1.6c0.4,0.4,0.9,0.5,1.4,0.5c0.7,0,1.2-0.3,1.7-0.8s0.7-1.2,0.7-2
		c0-0.8-0.2-1.4-0.7-1.9c-0.4-0.5-1-0.7-1.8-0.7c-0.5,0-0.9,0.1-1.2,0.3c-0.4,0.2-0.6,0.5-0.9,0.8c-1.3-0.2,0,0-1.3-0.2
		c1.1-5.9,0,0,1.1-5.9c5.7,0,0,0,5.7,0c0,1.3,0,0,0,1.3c-4.6,0,0,0-4.6,0c-0.6,3.1,0,0-0.6,3.1c0.7-0.5,1.4-0.7,2.2-0.7
		c1,0,1.8,0.3,2.5,1c0.7,0.7,1,1.6,1,2.7c0,1-0.3,1.9-0.9,2.7c-0.7,0.9-1.7,1.4-3,1.4c-1,0-1.9-0.3-2.5-0.9
		C354.1,311.6,353.8,310.9,353.7,309.9L353.7,309.9z"/>
	<path d="M362.5,307.3c0-1.4,0.1-2.4,0.4-3.3c0.3-0.8,0.7-1.5,1.2-1.9c0.5-0.4,1.2-0.7,2.1-0.7c0.6,0,1.2,0.1,1.6,0.4
		c0.5,0.2,0.8,0.6,1.1,1.1c0.3,0.5,0.5,1,0.7,1.7s0.3,1.6,0.3,2.7c0,1.3-0.1,2.4-0.4,3.2s-0.7,1.5-1.2,1.9c-0.5,0.4-1.2,0.7-2.1,0.7
		c-1.1,0-2-0.4-2.6-1.2C362.9,311,362.5,309.4,362.5,307.3L362.5,307.3z M363.9,307.3c0,1.9,0.2,3.1,0.7,3.7c0.4,0.6,1,0.9,1.6,0.9
		c0.6,0,1.2-0.3,1.6-0.9c0.4-0.6,0.7-1.9,0.7-3.7c0-1.9-0.2-3.1-0.7-3.7c-0.4-0.6-1-0.9-1.6-0.9c-0.6,0-1.2,0.3-1.5,0.8
		C364.2,304.1,363.9,305.4,363.9,307.3L363.9,307.3z"/>
	<path d="M401.1,312.9c-1.4,0,0,0-1.4,0c0-8.9,0,0,0-8.9c-0.3,0.3-0.8,0.6-1.3,1s-1,0.6-1.5,0.7c0-1.4,0,0,0-1.4
		c0.8-0.4,1.5-0.8,2.1-1.3c0.6-0.5,1-1,1.2-1.5c0.9,0,0,0,0.9,0C401.1,312.9,401.1,301.4,401.1,312.9L401.1,312.9z"/>
	<path d="M409.9,312.9c-1.4,0,0,0-1.4,0c0-8.9,0,0,0-8.9c-0.3,0.3-0.8,0.6-1.3,1s-1,0.6-1.5,0.7c0-1.4,0,0,0-1.4
		c0.8-0.4,1.5-0.8,2.1-1.3c0.6-0.5,1-1,1.2-1.5c0.9,0,0,0,0.9,0C409.9,312.9,409.9,301.4,409.9,312.9L409.9,312.9z"/>
	<path d="M413.5,307.3c0-1.4,0.1-2.4,0.4-3.3c0.3-0.8,0.7-1.5,1.2-1.9c0.5-0.4,1.2-0.7,2.1-0.7c0.6,0,1.2,0.1,1.6,0.4
		c0.5,0.2,0.8,0.6,1.1,1.1c0.3,0.5,0.5,1,0.7,1.7s0.3,1.6,0.3,2.7c0,1.3-0.1,2.4-0.4,3.2c-0.3,0.8-0.7,1.5-1.2,1.9
		c-0.5,0.4-1.2,0.7-2.1,0.7c-1.1,0-2-0.4-2.6-1.2C413.9,311,413.5,309.4,413.5,307.3L413.5,307.3z M414.9,307.3
		c0,1.9,0.2,3.1,0.7,3.7c0.4,0.6,1,0.9,1.6,0.9c0.6,0,1.2-0.3,1.6-0.9c0.4-0.6,0.7-1.9,0.7-3.7c0-1.9-0.2-3.1-0.7-3.7
		c-0.4-0.6-1-0.9-1.6-0.9c-0.6,0-1.2,0.3-1.5,0.8C415.2,304.1,414.9,305.4,414.9,307.3L414.9,307.3z"/>
	<path d="M422.3,307.3c0-1.4,0.1-2.4,0.4-3.3c0.3-0.8,0.7-1.5,1.2-1.9c0.5-0.4,1.2-0.7,2.1-0.7c0.6,0,1.2,0.1,1.6,0.4
		c0.5,0.2,0.8,0.6,1.1,1.1c0.3,0.5,0.5,1,0.7,1.7c0.2,0.7,0.3,1.6,0.3,2.7c0,1.3-0.1,2.4-0.4,3.2s-0.7,1.5-1.2,1.9
		c-0.5,0.4-1.2,0.7-2.1,0.7c-1.1,0-2-0.4-2.6-1.2C422.7,311,422.3,309.4,422.3,307.3L422.3,307.3z M423.7,307.3
		c0,1.9,0.2,3.1,0.7,3.7c0.4,0.6,1,0.9,1.6,0.9c0.6,0,1.2-0.3,1.6-0.9c0.4-0.6,0.7-1.9,0.7-3.7c0-1.9-0.2-3.1-0.7-3.7
		c-0.4-0.6-1-0.9-1.6-0.9c-0.6,0-1.2,0.3-1.5,0.8C424,304.1,423.7,305.4,423.7,307.3L423.7,307.3z"/>
	<path d="M423.1,646.1c1.5-0.1,0,0,1.5-0.1c0.1,0.7,0.4,1.3,0.8,1.6s0.9,0.5,1.4,0.5c0.7,0,1.2-0.3,1.7-0.8c0.5-0.5,0.7-1.2,0.7-2
		c0-0.8-0.2-1.4-0.7-1.9s-1-0.7-1.8-0.7c-0.5,0-0.9,0.1-1.2,0.3c-0.4,0.2-0.6,0.5-0.9,0.8c-1.3-0.2,0,0-1.3-0.2c1.1-5.9,0,0,1.1-5.9
		c5.7,0,0,0,5.7,0c0,1.3,0,0,0,1.3c-4.6,0,0,0-4.6,0c-0.6,3.1,0,0-0.6,3.1c0.7-0.5,1.4-0.7,2.2-0.7c1,0,1.8,0.3,2.5,1
		c0.7,0.7,1,1.6,1,2.7c0,1-0.3,1.9-0.9,2.7c-0.7,0.9-1.7,1.4-3,1.4c-1,0-1.9-0.3-2.5-0.9C423.6,647.9,423.2,647.1,423.1,646.1
		L423.1,646.1z"/>
	<path d="M432.8,649.1c0-1.6,0,0,0-1.6c1.6,0,0,0,1.6,0c0,1.6,0,0,0,1.6C432.8,649.1,434.3,649.1,432.8,649.1L432.8,649.1z"/>
	<path d="M436.3,646.1c1.5-0.1,0,0,1.5-0.1c0.1,0.7,0.4,1.3,0.8,1.6c0.4,0.4,0.9,0.5,1.4,0.5c0.7,0,1.2-0.3,1.7-0.8s0.7-1.2,0.7-2
		c0-0.8-0.2-1.4-0.7-1.9s-1-0.7-1.8-0.7c-0.5,0-0.9,0.1-1.2,0.3c-0.4,0.2-0.6,0.5-0.9,0.8c-1.3-0.2,0,0-1.3-0.2c1.1-5.9,0,0,1.1-5.9
		c5.7,0,0,0,5.7,0c0,1.3,0,0,0,1.3c-4.6,0,0,0-4.6,0c-0.6,3.1,0,0-0.6,3.1c0.7-0.5,1.4-0.7,2.2-0.7c1,0,1.8,0.3,2.5,1
		c0.7,0.7,1,1.6,1,2.7c0,1-0.3,1.9-0.9,2.7c-0.7,0.9-1.7,1.4-3,1.4c-1,0-1.9-0.3-2.5-0.9S436.4,647.1,436.3,646.1L436.3,646.1z"/>
	<path d="M423.1,573.2c1.5-0.1,0,0,1.5-0.1c0.1,0.7,0.4,1.3,0.8,1.6c0.4,0.4,0.9,0.5,1.4,0.5c0.7,0,1.2-0.3,1.7-0.8
		c0.5-0.5,0.7-1.2,0.7-2c0-0.8-0.2-1.4-0.7-1.9c-0.4-0.5-1-0.7-1.8-0.7c-0.5,0-0.9,0.1-1.2,0.3c-0.4,0.2-0.6,0.5-0.9,0.8
		c-1.3-0.2,0,0-1.3-0.2c1.1-5.9,0,0,1.1-5.9c5.7,0,0,0,5.7,0c0,1.3,0,0,0,1.3c-4.6,0,0,0-4.6,0c-0.6,3.1,0,0-0.6,3.1
		c0.7-0.5,1.4-0.7,2.2-0.7c1,0,1.8,0.3,2.5,1s1,1.6,1,2.7c0,1-0.3,1.9-0.9,2.7c-0.7,0.9-1.7,1.4-3,1.4c-1,0-1.9-0.3-2.5-0.9
		C423.6,575,423.2,574.2,423.1,573.2L423.1,573.2z"/>
	<path d="M432.8,576.2c0-1.6,0,0,0-1.6c1.6,0,0,0,1.6,0c0,1.6,0,0,0,1.6C432.8,576.2,434.3,576.2,432.8,576.2L432.8,576.2z"/>
	<path d="M436.3,570.6c0-1.4,0.1-2.4,0.4-3.3s0.7-1.5,1.2-1.9c0.5-0.4,1.2-0.7,2.1-0.7c0.6,0,1.2,0.1,1.6,0.4
		c0.5,0.2,0.8,0.6,1.1,1.1s0.5,1,0.7,1.7c0.2,0.7,0.3,1.6,0.3,2.7c0,1.3-0.1,2.4-0.4,3.2c-0.3,0.8-0.7,1.5-1.2,1.9s-1.2,0.7-2.1,0.7
		c-1.1,0-2-0.4-2.6-1.2C436.7,574.3,436.3,572.7,436.3,570.6L436.3,570.6z M437.8,570.6c0,1.9,0.2,3.1,0.7,3.7
		c0.4,0.6,1,0.9,1.6,0.9s1.2-0.3,1.6-0.9c0.4-0.6,0.7-1.9,0.7-3.7c0-1.9-0.2-3.1-0.7-3.7c-0.4-0.6-1-0.9-1.6-0.9
		c-0.6,0-1.2,0.3-1.5,0.8C438,567.4,437.8,568.7,437.8,570.6L437.8,570.6z"/>
	<path d="M427.6,503.3c0-2.7,0,0,0-2.7c-5,0,0,0-5,0c0-1.3,0,0,0-1.3c5.2-7.4,0,0,5.2-7.4c1.1,0,0,0,1.1,0c0,7.4,0,0,0,7.4
		c1.5,0,0,0,1.5,0c0,1.3,0,0,0,1.3c-1.5,0,0,0-1.5,0c0,2.7,0,0,0,2.7C427.6,503.3,429,503.3,427.6,503.3L427.6,503.3z M427.6,499.3
		c0-5.2,0,0,0-5.2c-3.6,5.2,0,0-3.6,5.2C427.6,499.3,424.1,499.3,427.6,499.3L427.6,499.3z"/>
	<path d="M432.8,503.3c0-1.6,0,0,0-1.6c1.6,0,0,0,1.6,0c0,1.6,0,0,0,1.6C432.8,503.3,434.3,503.3,432.8,503.3L432.8,503.3z"/>
	<path d="M436.3,500.3c1.5-0.1,0,0,1.5-0.1c0.1,0.7,0.4,1.3,0.8,1.6c0.4,0.4,0.9,0.5,1.4,0.5c0.7,0,1.2-0.3,1.7-0.8s0.7-1.2,0.7-2
		c0-0.8-0.2-1.4-0.7-1.9c-0.4-0.5-1-0.7-1.8-0.7c-0.5,0-0.9,0.1-1.2,0.3c-0.4,0.2-0.6,0.5-0.9,0.8c-1.3-0.2,0,0-1.3-0.2
		c1.1-5.9,0,0,1.1-5.9c5.7,0,0,0,5.7,0c0,1.3,0,0,0,1.3c-4.6,0,0,0-4.6,0c-0.6,3.1,0,0-0.6,3.1c0.7-0.5,1.4-0.7,2.2-0.7
		c1,0,1.8,0.3,2.5,1s1,1.6,1,2.7c0,1-0.3,1.9-0.9,2.7c-0.7,0.9-1.7,1.4-3,1.4c-1,0-1.9-0.3-2.5-0.9S436.4,501.2,436.3,500.3
		L436.3,500.3z"/>
	<path d="M427.6,430.4c0-2.7,0,0,0-2.7c-5,0,0,0-5,0c0-1.3,0,0,0-1.3c5.2-7.4,0,0,5.2-7.4c1.1,0,0,0,1.1,0c0,7.4,0,0,0,7.4
		c1.5,0,0,0,1.5,0c0,1.3,0,0,0,1.3c-1.5,0,0,0-1.5,0c0,2.7,0,0,0,2.7C427.6,430.4,429,430.4,427.6,430.4L427.6,430.4z M427.6,426.4
		c0-5.2,0,0,0-5.2c-3.6,5.2,0,0-3.6,5.2C427.6,426.4,424.1,426.4,427.6,426.4L427.6,426.4z"/>
	<path d="M432.8,430.4c0-1.6,0,0,0-1.6c1.6,0,0,0,1.6,0c0,1.6,0,0,0,1.6C432.8,430.4,434.3,430.4,432.8,430.4L432.8,430.4z"/>
	<path d="M436.3,424.7c0-1.4,0.1-2.4,0.4-3.3s0.7-1.5,1.2-1.9c0.5-0.4,1.2-0.7,2.1-0.7c0.6,0,1.2,0.1,1.6,0.4
		c0.5,0.2,0.8,0.6,1.1,1.1c0.3,0.5,0.5,1,0.7,1.7s0.3,1.6,0.3,2.7c0,1.3-0.1,2.4-0.4,3.2c-0.3,0.8-0.7,1.5-1.2,1.9s-1.2,0.7-2.1,0.7
		c-1.1,0-2-0.4-2.6-1.2C436.7,428.4,436.3,426.9,436.3,424.7L436.3,424.7z M437.8,424.7c0,1.9,0.2,3.1,0.7,3.7
		c0.4,0.6,1,0.9,1.6,0.9s1.2-0.3,1.6-0.9c0.4-0.6,0.7-1.9,0.7-3.7c0-1.9-0.2-3.1-0.7-3.7s-1-0.9-1.6-0.9c-0.6,0-1.2,0.3-1.5,0.8
		C438,421.6,437.8,422.9,437.8,424.7L437.8,424.7z"/>
	<path d="M423.2,354.5c1.4-0.2,0,0,1.4-0.2c0.2,0.8,0.4,1.4,0.8,1.7c0.4,0.4,0.9,0.5,1.4,0.5c0.7,0,1.2-0.2,1.7-0.7
		c0.5-0.5,0.7-1,0.7-1.7c0-0.6-0.2-1.2-0.6-1.6c-0.4-0.4-1-0.6-1.6-0.6c-0.3,0-0.6,0.1-1,0.2c0.2-1.2,0,0,0.2-1.2c0.1,0,0.2,0,0.2,0
		c0.6,0,1.1-0.2,1.6-0.5c0.5-0.3,0.7-0.8,0.7-1.4c0-0.5-0.2-0.9-0.5-1.3c-0.3-0.3-0.8-0.5-1.3-0.5c-0.5,0-1,0.2-1.4,0.5
		c-0.4,0.3-0.6,0.9-0.7,1.5c-1.4-0.2,0,0-1.4-0.2c0.2-0.9,0.6-1.7,1.2-2.2c0.6-0.5,1.4-0.8,2.3-0.8c0.6,0,1.2,0.1,1.7,0.4
		c0.5,0.3,0.9,0.6,1.2,1.1c0.3,0.5,0.4,1,0.4,1.5c0,0.5-0.1,0.9-0.4,1.3c-0.3,0.4-0.7,0.7-1.2,1c0.7,0.2,1.2,0.5,1.6,1
		c0.4,0.5,0.6,1.1,0.6,1.8c0,1-0.4,1.8-1.1,2.5c-0.7,0.7-1.6,1-2.8,1c-1,0-1.8-0.3-2.5-0.9C423.6,356.2,423.2,355.4,423.2,354.5
		L423.2,354.5z"/>
	<path d="M432.8,357.5c0-1.6,0,0,0-1.6c1.6,0,0,0,1.6,0c0,1.6,0,0,0,1.6C432.8,357.5,434.3,357.5,432.8,357.5L432.8,357.5z"/>
	<path d="M436.3,354.5c1.5-0.1,0,0,1.5-0.1c0.1,0.7,0.4,1.3,0.8,1.6c0.4,0.4,0.9,0.5,1.4,0.5c0.7,0,1.2-0.3,1.7-0.8s0.7-1.2,0.7-2
		c0-0.8-0.2-1.4-0.7-1.9c-0.4-0.5-1-0.7-1.8-0.7c-0.5,0-0.9,0.1-1.2,0.3c-0.4,0.2-0.6,0.5-0.9,0.8c-1.3-0.2,0,0-1.3-0.2
		c1.1-5.9,0,0,1.1-5.9c5.7,0,0,0,5.7,0c0,1.3,0,0,0,1.3c-4.6,0,0,0-4.6,0c-0.6,3.1,0,0-0.6,3.1c0.7-0.5,1.4-0.7,2.2-0.7
		c1,0,1.8,0.3,2.5,1s1,1.6,1,2.7c0,1-0.3,1.9-0.9,2.7c-0.7,0.9-1.7,1.4-3,1.4c-1,0-1.9-0.3-2.5-0.9S436.4,355.4,436.3,354.5
		L436.3,354.5z"/>
	<path class="st0" d="M454.1,647.9V325.6 M628.8,647.9V325.6"/>
	<path class="st1" d="M454.1,607.9h-2.6 M454.1,534.9h-2.6 M454.1,462h-2.6 M454.1,389h-2.6 M454.1,644.3h-5.2 M454.1,571.4h-5.2
		 M454.1,498.4h-5.2 M454.1,425.5h-5.2 M454.1,352.6h-5.2"/>
	<path class="st0" d="M454.1,325.6h174.7 M454.1,647.9h174.7"/>
	<path class="st1" d="M497.8,325.6V323 M585.1,325.6V323 M454.1,325.6v-5.2 M541.5,325.6v-5.2 M628.8,325.6v-5.2"/>
	<path d="M454.2,307.7c1.4,0,2.4,0.1,3.3,0.4c0.8,0.3,1.5,0.7,1.9,1.2c0.4,0.5,0.7,1.2,0.7,2.1c0,0.6-0.1,1.2-0.4,1.6
		s-0.6,0.8-1.1,1.1s-1,0.5-1.7,0.7c-0.7,0.2-1.6,0.3-2.7,0.3c-1.3,0-2.4-0.1-3.2-0.4s-1.5-0.7-1.9-1.2c-0.4-0.5-0.7-1.2-0.7-2.1
		c0-1.1,0.4-2,1.2-2.6C450.5,308.1,452.1,307.7,454.2,307.7L454.2,307.7z M454.2,309.2c-1.9,0-3.1,0.2-3.7,0.7s-0.9,1-0.9,1.6
		c0,0.6,0.3,1.2,0.9,1.6c0.6,0.4,1.9,0.7,3.7,0.7c1.9,0,3.1-0.2,3.7-0.7c0.6-0.4,0.9-1,0.9-1.6c0-0.6-0.3-1.2-0.8-1.5
		C457.4,309.4,456.1,309.2,454.2,309.2L454.2,309.2z"/>
	<path d="M538.9,298.9c0.1,1.5,0,0,0.1,1.5c-0.7,0.1-1.3,0.4-1.6,0.8c-0.4,0.4-0.5,0.9-0.5,1.4c0,0.7,0.3,1.2,0.8,1.7
		c0.5,0.5,1.2,0.7,2,0.7c0.8,0,1.4-0.2,1.9-0.7c0.5-0.4,0.7-1,0.7-1.8c0-0.5-0.1-0.9-0.3-1.2c-0.2-0.4-0.5-0.6-0.8-0.9
		c0.2-1.3,0,0,0.2-1.3c5.9,1.1,0,0,5.9,1.1c0,5.7,0,0,0,5.7c-1.3,0,0,0-1.3,0c0-4.6,0,0,0-4.6c-3.1-0.6,0,0-3.1-0.6
		c0.5,0.7,0.7,1.4,0.7,2.2c0,1-0.3,1.8-1,2.5c-0.7,0.7-1.6,1-2.7,1c-1,0-1.9-0.3-2.7-0.9c-0.9-0.7-1.4-1.7-1.4-3
		c0-1,0.3-1.9,0.9-2.5C537.2,299.3,538,298.9,538.9,298.9L538.9,298.9z"/>
	<path d="M541.6,307.7c1.4,0,2.4,0.1,3.3,0.4c0.8,0.3,1.5,0.7,1.9,1.2c0.4,0.5,0.7,1.2,0.7,2.1c0,0.6-0.1,1.2-0.4,1.6
		c-0.2,0.5-0.6,0.8-1.1,1.1c-0.5,0.3-1,0.5-1.7,0.7s-1.6,0.3-2.7,0.3c-1.3,0-2.4-0.1-3.2-0.4s-1.5-0.7-1.9-1.2
		c-0.4-0.5-0.7-1.2-0.7-2.1c0-1.1,0.4-2,1.2-2.6C537.9,308.1,539.4,307.7,541.6,307.7L541.6,307.7z M541.6,309.1
		c-1.9,0-3.1,0.2-3.7,0.7s-0.9,1-0.9,1.6c0,0.6,0.3,1.2,0.9,1.6c0.6,0.4,1.9,0.7,3.7,0.7c1.9,0,3.1-0.2,3.7-0.7
		c0.6-0.4,0.9-1,0.9-1.6c0-0.6-0.3-1.2-0.8-1.5C544.7,309.4,543.5,309.1,541.6,309.1L541.6,309.1z"/>
	<path d="M623.3,295.3c0-1.4,0,0,0-1.4c8.9,0,0,0,8.9,0c-0.3-0.3-0.6-0.8-1-1.3c-0.3-0.5-0.6-1-0.7-1.5c1.4,0,0,0,1.4,0
		c0.4,0.8,0.8,1.5,1.3,2.1c0.5,0.6,1,1,1.5,1.2c0,0.9,0,0,0,0.9C623.3,295.3,634.8,295.3,623.3,295.3L623.3,295.3z"/>
	<path d="M628.9,298.8c1.4,0,2.4,0.1,3.3,0.4s1.5,0.7,1.9,1.2s0.7,1.2,0.7,2.1c0,0.6-0.1,1.2-0.4,1.6c-0.2,0.5-0.6,0.8-1.1,1.1
		s-1,0.5-1.7,0.7s-1.6,0.3-2.7,0.3c-1.3,0-2.4-0.1-3.2-0.4c-0.8-0.3-1.5-0.7-1.9-1.2c-0.4-0.5-0.7-1.2-0.7-2.1c0-1.1,0.4-2,1.2-2.6
		C625.2,299.2,626.8,298.8,628.9,298.8L628.9,298.8z M628.9,300.2c-1.9,0-3.1,0.2-3.7,0.7s-0.9,1-0.9,1.6s0.3,1.2,0.9,1.6
		c0.6,0.4,1.9,0.7,3.7,0.7c1.9,0,3.1-0.2,3.7-0.7c0.6-0.4,0.9-1,0.9-1.6c0-0.6-0.3-1.2-0.8-1.5C632.1,300.5,630.8,300.2,628.9,300.2
		L628.9,300.2z"/>
	<path d="M628.9,307.6c1.4,0,2.4,0.1,3.3,0.4c0.8,0.3,1.5,0.7,1.9,1.2c0.4,0.5,0.7,1.2,0.7,2.1c0,0.6-0.1,1.2-0.4,1.6
		s-0.6,0.8-1.1,1.1s-1,0.5-1.7,0.7s-1.6,0.3-2.7,0.3c-1.3,0-2.4-0.1-3.2-0.4c-0.8-0.3-1.5-0.7-1.9-1.2c-0.4-0.5-0.7-1.2-0.7-2.1
		c0-1.1,0.4-2,1.2-2.6C625.2,308,626.8,307.6,628.9,307.6L628.9,307.6z M628.9,309.1c-1.9,0-3.1,0.2-3.7,0.7s-0.9,1-0.9,1.6
		c0,0.6,0.3,1.2,0.9,1.6c0.6,0.4,1.9,0.7,3.7,0.7c1.9,0,3.1-0.2,3.7-0.7c0.6-0.4,0.9-1,0.9-1.6c0-0.6-0.3-1.2-0.8-1.5
		C632.1,309.3,630.8,309.1,628.9,309.1L628.9,309.1z"/>
	<path d="M538.3,291.4c-0.8,0-1.5-0.2-2.1-0.6c-0.6-0.4-0.9-1-0.9-1.8c0-0.7,0.3-1.3,0.8-1.8c0.5-0.5,1.3-0.7,2.3-0.7
		c1,0,1.7,0.2,2.2,0.7c0.5,0.5,0.8,1.1,0.8,1.8c0,0.7-0.3,1.3-0.8,1.7C540.1,291.2,539.3,291.4,538.3,291.4L538.3,291.4z
		 M536.3,288.9c0,0.3,0.2,0.6,0.5,0.9c0.3,0.2,0.9,0.3,1.7,0.3c0.7,0,1.2-0.1,1.5-0.4s0.4-0.5,0.4-0.9c0-0.4-0.2-0.6-0.5-0.9
		c-0.3-0.2-0.9-0.3-1.7-0.3c-0.7,0-1.3,0.1-1.6,0.4S536.3,288.6,536.3,288.9L536.3,288.9z M547.4,288.9c-12-6.3,0,0-12-6.3
		c0-1.1,0,0,0-1.1c12,6.2,0,0,12,6.2C547.4,288.9,547.4,287.8,547.4,288.9L547.4,288.9z M544.3,284c-0.8,0-1.5-0.2-2.1-0.6
		c-0.6-0.4-0.9-1-0.9-1.8c0-0.7,0.3-1.3,0.8-1.8c0.5-0.5,1.3-0.7,2.3-0.7c1,0,1.7,0.2,2.2,0.7c0.5,0.5,0.8,1.1,0.8,1.8
		c0,0.7-0.3,1.3-0.8,1.7C546.1,283.8,545.3,284,544.3,284L544.3,284z M542.3,281.6c0,0.4,0.2,0.6,0.5,0.9c0.3,0.2,0.9,0.3,1.7,0.3
		c0.7,0,1.2-0.1,1.5-0.4c0.3-0.2,0.5-0.5,0.5-0.9c0-0.4-0.2-0.7-0.5-0.9c-0.3-0.2-0.9-0.3-1.7-0.3c-0.7,0-1.3,0.1-1.6,0.4
		C542.5,280.9,542.3,281.2,542.3,281.6L542.3,281.6z"/>
	<path class="st0" d="M30.3,290.1h382.7 M30.3,151.6h382.7"/>
	<path class="st1" d="M84.1,290.1v2.6 M143.8,290.1v2.6 M203.7,290.1v2.6 M263.5,290.1v2.6 M323.2,290.1v2.6 M383.1,290.1v2.6
		 M54.2,290.1v5.2 M114,290.1v5.2 M173.8,290.1v5.2 M233.5,290.1v5.2 M293.4,290.1v5.2 M353.1,290.1v5.2 M412.9,290.1v5.2"/>
	<path class="st0" d="M30.3,290.1V151.6 M412.9,290.1V151.6"/>
	<path class="st1" d="M30.3,255.5h-2.6 M30.3,186.2h-2.6 M30.3,290.1h-5.2 M30.3,220.9h-5.2 M30.3,151.6h-5.2"/>
	<path d="M13.3,289.3c0-1.4,0.1-2.4,0.4-3.3c0.3-0.8,0.7-1.5,1.2-1.9s1.2-0.7,2.1-0.7c0.6,0,1.2,0.1,1.6,0.4
		c0.5,0.2,0.8,0.6,1.1,1.1c0.3,0.5,0.5,1,0.7,1.7s0.3,1.6,0.3,2.7c0,1.3-0.1,2.4-0.4,3.2c-0.3,0.8-0.7,1.5-1.2,1.9
		c-0.5,0.4-1.2,0.7-2.1,0.7c-1.1,0-2-0.4-2.6-1.2C13.7,293,13.3,291.5,13.3,289.3L13.3,289.3z M14.7,289.3c0,1.9,0.2,3.1,0.7,3.7
		c0.4,0.6,1,0.9,1.6,0.9c0.6,0,1.2-0.3,1.6-0.9c0.4-0.6,0.7-1.9,0.7-3.7c0-1.9-0.2-3.1-0.7-3.7c-0.4-0.6-1-0.9-1.6-0.9
		c-0.6,0-1.2,0.3-1.5,0.8C15,286.2,14.7,287.4,14.7,289.3L14.7,289.3z"/>
	<path d="M4.4,222.7c1.5-0.1,0,0,1.5-0.1c0.1,0.7,0.4,1.3,0.8,1.6c0.4,0.4,0.9,0.5,1.4,0.5c0.7,0,1.2-0.3,1.7-0.8
		c0.5-0.5,0.7-1.2,0.7-2c0-0.8-0.2-1.4-0.7-1.9c-0.4-0.5-1-0.7-1.8-0.7c-0.5,0-0.9,0.1-1.2,0.3s-0.6,0.5-0.9,0.8
		c-1.3-0.2,0,0-1.3-0.2c1.1-5.9,0,0,1.1-5.9c5.7,0,0,0,5.7,0c0,1.3,0,0,0,1.3c-4.6,0,0,0-4.6,0c-0.6,3.1,0,0-0.6,3.1
		c0.7-0.5,1.4-0.7,2.2-0.7c1,0,1.8,0.3,2.5,1c0.7,0.7,1,1.6,1,2.7c0,1-0.3,1.9-0.9,2.7c-0.7,0.9-1.7,1.4-3,1.4c-1,0-1.9-0.3-2.5-0.9
		C4.9,224.5,4.5,223.7,4.4,222.7L4.4,222.7z"/>
	<path d="M13.2,220.1c0-1.4,0.1-2.4,0.4-3.3s0.7-1.5,1.2-1.9s1.2-0.7,2.1-0.7c0.6,0,1.2,0.1,1.6,0.4c0.5,0.2,0.8,0.6,1.1,1.1
		c0.3,0.5,0.5,1,0.7,1.7s0.3,1.6,0.3,2.7c0,1.3-0.1,2.4-0.4,3.2c-0.3,0.8-0.7,1.5-1.2,1.9c-0.5,0.4-1.2,0.7-2.1,0.7
		c-1.1,0-2-0.4-2.6-1.2C13.6,223.8,13.2,222.2,13.2,220.1L13.2,220.1z M14.7,220.1c0,1.9,0.2,3.1,0.7,3.7c0.4,0.6,1,0.9,1.6,0.9
		c0.6,0,1.2-0.3,1.6-0.9c0.4-0.6,0.7-1.9,0.7-3.7c0-1.9-0.2-3.1-0.7-3.7c-0.4-0.6-1-0.9-1.6-0.9c-0.6,0-1.2,0.3-1.5,0.8
		C14.9,216.9,14.7,218.2,14.7,220.1L14.7,220.1z"/>
	<path d="M0.8,156.5c-1.4,0,0,0-1.4,0c0-8.9,0,0,0-8.9c-0.3,0.3-0.8,0.6-1.3,1s-1,0.6-1.5,0.7c0-1.4,0,0,0-1.4
		c0.8-0.4,1.5-0.8,2.1-1.3c0.6-0.5,1-1,1.2-1.5c0.9,0,0,0,0.9,0C0.8,156.5,0.8,145,0.8,156.5L0.8,156.5z"/>
	<path d="M4.3,150.8c0-1.4,0.1-2.4,0.4-3.3s0.7-1.5,1.2-1.9s1.2-0.7,2.1-0.7c0.6,0,1.2,0.1,1.6,0.4c0.5,0.2,0.8,0.6,1.1,1.1
		c0.3,0.5,0.5,1,0.7,1.7c0.2,0.7,0.3,1.6,0.3,2.7c0,1.3-0.1,2.4-0.4,3.2s-0.7,1.5-1.2,1.9c-0.5,0.4-1.2,0.7-2.1,0.7
		c-1.1,0-2-0.4-2.6-1.2C4.7,154.5,4.3,153,4.3,150.8L4.3,150.8z M5.8,150.8c0,1.9,0.2,3.1,0.7,3.7c0.4,0.6,1,0.9,1.6,0.9
		c0.6,0,1.2-0.3,1.6-0.9c0.4-0.6,0.7-1.9,0.7-3.7c0-1.9-0.2-3.1-0.7-3.7c-0.4-0.6-1-0.9-1.6-0.9c-0.6,0-1.2,0.3-1.5,0.8
		C6,147.7,5.8,149,5.8,150.8L5.8,150.8z"/>
	<path d="M13.2,150.8c0-1.4,0.1-2.4,0.4-3.3s0.7-1.5,1.2-1.9s1.2-0.7,2.1-0.7c0.6,0,1.2,0.1,1.6,0.4c0.5,0.2,0.8,0.6,1.1,1.1
		c0.3,0.5,0.5,1,0.7,1.7c0.2,0.7,0.3,1.6,0.3,2.7c0,1.3-0.1,2.4-0.4,3.2s-0.7,1.5-1.2,1.9c-0.5,0.4-1.2,0.7-2.1,0.7
		c-1.1,0-2-0.4-2.6-1.2C13.5,154.5,13.2,153,13.2,150.8L13.2,150.8z M14.6,150.8c0,1.9,0.2,3.1,0.7,3.7c0.4,0.6,1,0.9,1.6,0.9
		c0.6,0,1.2-0.3,1.6-0.9c0.4-0.6,0.7-1.9,0.7-3.7c0-1.9-0.2-3.1-0.7-3.7c-0.4-0.6-1-0.9-1.6-0.9c-0.6,0-1.2,0.3-1.5,0.8
		C14.8,147.7,14.6,149,14.6,150.8L14.6,150.8z"/>
	<path d="M-20.1,227c-0.8,0-1.5-0.2-2.1-0.6c-0.6-0.4-0.9-1-0.9-1.8c0-0.7,0.3-1.3,0.8-1.8c0.5-0.5,1.3-0.7,2.3-0.7
		c1,0,1.7,0.2,2.2,0.7c0.5,0.5,0.8,1.1,0.8,1.8c0,0.7-0.3,1.3-0.8,1.7C-18.2,226.8-19,227-20.1,227L-20.1,227z M-22,224.6
		c0,0.3,0.2,0.6,0.5,0.9c0.3,0.2,0.9,0.3,1.7,0.3c0.7,0,1.2-0.1,1.5-0.4c0.3-0.2,0.4-0.5,0.4-0.9c0-0.4-0.2-0.6-0.5-0.9
		c-0.3-0.2-0.9-0.3-1.7-0.3c-0.7,0-1.3,0.1-1.6,0.4C-21.9,223.9-22,224.2-22,224.6L-22,224.6z M-11,224.6c-12-6.3,0,0-12-6.3
		c0-1.1,0,0,0-1.1c12,6.2,0,0,12,6.2C-11,224.6-11,223.4-11,224.6L-11,224.6z M-14.1,219.6c-0.8,0-1.5-0.2-2.1-0.6
		c-0.6-0.4-0.9-1-0.9-1.8c0-0.7,0.3-1.3,0.8-1.8c0.5-0.5,1.3-0.7,2.3-0.7c1,0,1.7,0.2,2.2,0.7c0.5,0.5,0.8,1.1,0.8,1.8
		c0,0.7-0.3,1.3-0.8,1.7C-12.3,219.4-13,219.6-14.1,219.6L-14.1,219.6z M-16,217.2c0,0.4,0.2,0.6,0.5,0.9c0.3,0.2,0.9,0.3,1.7,0.3
		c0.7,0,1.2-0.1,1.5-0.4c0.3-0.2,0.5-0.5,0.5-0.9c0-0.4-0.2-0.7-0.5-0.9c-0.3-0.2-0.9-0.3-1.7-0.3c-0.7,0-1.3,0.1-1.6,0.4
		S-16,216.8-16,217.2L-16,217.2z"/>
</g>
<text transform="matrix(1 0 0 1 203.661 669)" class="st2 st3">m/z</text>
<text transform="matrix(-1.346898e-010 1 -1 -1.346898e-010 -1.2988 445.6772)" class="st4 st3">Drift Time (ms)</text>
</svg>
